<?xml version="1.0" encoding="UTF-8" standalone="no"?>
<!-- Generator: Adobe Illustrator 17.1.0, SVG Export Plug-In . SVG Version: 6.00 Build 0)  -->

<svg
   xmlns:dc="http://purl.org/dc/elements/1.1/"
   xmlns:cc="http://creativecommons.org/ns#"
   xmlns:rdf="http://www.w3.org/1999/02/22-rdf-syntax-ns#"
   xmlns:svg="http://www.w3.org/2000/svg"
   xmlns="http://www.w3.org/2000/svg"
   xmlns:xlink="http://www.w3.org/1999/xlink"
   xmlns:sodipodi="http://sodipodi.sourceforge.net/DTD/sodipodi-0.dtd"
   xmlns:inkscape="http://www.inkscape.org/namespaces/inkscape"
   version="1.1"
   id="Layer_2"
   x="0px"
   y="0px"
   viewBox="0 0 512 512"
   enable-background="new 0 0 341.6 341.6"
   xml:space="preserve"
   inkscape:version="0.48.5 r10040"
   width="100%"
   height="100%"
   sodipodi:docname="52bff1eec8318cb228000001_grayscale.svg"><metadata
     id="metadata4534"><rdf:RDF><cc:Work
         rdf:about=""><dc:format>image/svg+xml</dc:format><dc:type
           rdf:resource="http://purl.org/dc/dcmitype/StillImage" /></cc:Work></rdf:RDF></metadata><defs
     id="defs4532"><linearGradient
       inkscape:collect="always"
       xlink:href="#SVGID_1_"
       id="linearGradient4541"
       gradientUnits="userSpaceOnUse"
       gradientTransform="translate(0,170.4)"
       x1="7.6578999"
       y1="4.9257002"
       x2="337.7207"
       y2="340.5159" /><filter
       inkscape:label="Desaturate"
       x="0"
       y="0"
       width="1"
       height="1"
       inkscape:menu="Color"
       inkscape:menu-tooltip="Render in shades of gray by reducing saturation to zero"
       color-interpolation-filters="sRGB"
       id="filter2991"><feColorMatrix
         type="saturate"
         values="0"
         id="feColorMatrix2993" /></filter></defs><sodipodi:namedview
     pagecolor="#ffffff"
     bordercolor="#666666"
     borderopacity="1"
     objecttolerance="10"
     gridtolerance="10"
     guidetolerance="10"
     inkscape:pageopacity="0"
     inkscape:pageshadow="2"
     inkscape:window-width="1920"
     inkscape:window-height="1031"
     id="namedview4530"
     showgrid="false"
     inkscape:zoom="1.381733"
     inkscape:cx="236.08702"
     inkscape:cy="217.06961"
     inkscape:window-x="0"
     inkscape:window-y="0"
     inkscape:window-maximized="1"
     inkscape:current-layer="Layer_2" /><linearGradient
     id="SVGID_1_"
     gradientUnits="userSpaceOnUse"
     x1="7.6578999"
     y1="4.9257002"
     x2="337.7207"
     y2="340.5159"
     gradientTransform="translate(0,170.4)"><stop
       offset="0"
       style="stop-color:#468FFC"
       id="stop4516" /><stop
       offset="0.2091"
       style="stop-color:#3C85F5"
       id="stop4518" /><stop
       offset="0.65"
       style="stop-color:#2D75EB"
       id="stop4520" /><stop
       offset="1"
       style="stop-color:#2870E7"
       id="stop4522" /></linearGradient><g
     id="g4536"
     transform="matrix(1.2880513,0,0,1.2880513,35.936435,-183.54751)"
     style="filter:url(#filter2991)"><path
       style="fill:url(#linearGradient4541)"
       inkscape:connector-curvature="0"
       id="path4524"
       d="m 0,202.4 c 0,-17.7 14.3,-32 32,-32 h 277.7 c 17.7,0 32,14.3 32,32 v 277.7 c 0,17.7 -14.3,32 -32,32 H 32 c -17.7,0 -32,-14.3 -32,-32 V 202.4 z" /><g
       transform="translate(0,170.4)"
       id="g4526"><path
         style="fill:#ffffff"
         inkscape:connector-curvature="0"
         id="path4528"
         d="m 241.5,48.8 h -22.2 c 7.9,6.5 25.5,20.1 25.5,48.8 0,26.2 -16.1,39.1 -23.3,45.2 l -6.8,5.7 c -5,5 -10,9.7 -10,17.6 0,5.4 2.2,9 9.3,15.1 l 12.9,10 c 3.6,2.9 7.2,5.7 10.4,9 12.9,12.2 19.7,23.7 19.7,41.6 0,8.3 -1.8,21.9 -14.7,37 -26.2,30.1 -68.5,30.5 -79.7,30.5 -5.4,0 -32.7,0 -52.8,-12.2 -6.1,-3.6 -24.4,-16.1 -24.4,-39.1 0.4,-17.2 10.4,-32.3 24,-41.6 14.7,-10.4 34.8,-16.5 72.1,-19 -0.7,-1.1 -1.8,-2.2 -2.5,-3.2 -2.2,-2.5 -8.3,-10.4 -8.3,-21.2 0,-3.6 0.7,-6.8 3.2,-13.3 -3.9,0.4 -16.1,1.4 -28.3,-1.8 -25.1,-6.5 -42.3,-28.3 -42.3,-54.5 0,-19.4 10.4,-38 25.5,-49.9 19,-14.7 38,-16.5 60.6,-17.6 h 75.4 l -23.3,12.9 z m -32,170.9 c -5.4,-3.9 -10.4,-7.9 -15.8,-11.5 -6.5,-0.7 -13.3,-0.7 -26.2,0.7 -37.3,5.4 -50.6,22.6 -50.6,41.6 0,4.7 0.7,13.3 7.9,22.6 16.5,21.2 50.2,21.2 55.3,21.2 16.1,0 36.6,-3.9 46.7,-19 5.7,-8.3 6.1,-15.8 6.1,-19.7 0,-13.6 -7.2,-21.5 -16.5,-30.5 l -6.9,-5.4 z M 202.7,72.5 C 192.3,52.8 177.6,47.7 167.9,47.7 c -3.2,0 -9.7,0.7 -16.5,4.7 -7.5,4.3 -16.5,13.6 -16.5,34.1 0,17.6 7.9,42.7 21.9,54.9 3.2,2.9 11.5,8.6 23.3,8.6 5.7,0 10.8,-1.4 16.1,-3.9 7.5,-3.9 16.5,-11.8 16.9,-30.9 0.4,-13.6 -3.9,-30.5 -10.4,-42.7 z" /></g></g></svg>