<?xml version="1.0" encoding="UTF-8" standalone="no"?>
<!-- Generator: Adobe Illustrator 17.1.0, SVG Export Plug-In . SVG Version: 6.00 Build 0)  -->

<svg
   xmlns:dc="http://purl.org/dc/elements/1.1/"
   xmlns:cc="http://creativecommons.org/ns#"
   xmlns:rdf="http://www.w3.org/1999/02/22-rdf-syntax-ns#"
   xmlns:svg="http://www.w3.org/2000/svg"
   xmlns="http://www.w3.org/2000/svg"
   xmlns:xlink="http://www.w3.org/1999/xlink"
   xmlns:sodipodi="http://sodipodi.sourceforge.net/DTD/sodipodi-0.dtd"
   xmlns:inkscape="http://www.inkscape.org/namespaces/inkscape"
   version="1.1"
   id="Layer_2"
   x="0px"
   y="0px"
   viewBox="0 0 512 512"
   enable-background="new 0 0 341.6 341.6"
   xml:space="preserve"
   inkscape:version="0.48.5 r10040"
   width="100%"
   height="100%"
   sodipodi:docname="53047faac8318c2d65000100.svg"><metadata
     id="metadata4534"><rdf:RDF><cc:Work
         rdf:about=""><dc:format>image/svg+xml</dc:format><dc:type
           rdf:resource="http://purl.org/dc/dcmitype/StillImage" /><dc:title /></cc:Work></rdf:RDF></metadata><defs
     id="defs4532"><linearGradient
       id="linearGradient3933"><stop
         style="stop-color:#ffffff;stop-opacity:1;"
         offset="0"
         id="stop3935" /><stop
         style="stop-color:#6ab6dc;stop-opacity:1;"
         offset="1"
         id="stop3937" /></linearGradient><radialGradient
       inkscape:collect="always"
       xlink:href="#linearGradient3933"
       id="radialGradient3939"
       cx="179.88138"
       cy="249.21455"
       fx="179.88138"
       fy="249.21455"
       r="64.736824"
       gradientUnits="userSpaceOnUse" /><radialGradient
       inkscape:collect="always"
       xlink:href="#linearGradient3933"
       id="radialGradient3941"
       cx="179.88138"
       cy="249.21455"
       fx="179.88138"
       fy="249.21455"
       r="64.736824"
       gradientUnits="userSpaceOnUse" /><radialGradient
       inkscape:collect="always"
       xlink:href="#linearGradient3933"
       id="radialGradient3943"
       cx="179.88138"
       cy="249.21455"
       fx="179.88138"
       fy="249.21455"
       r="64.736824"
       gradientUnits="userSpaceOnUse" /><radialGradient
       inkscape:collect="always"
       xlink:href="#linearGradient3933"
       id="radialGradient3945"
       cx="179.88138"
       cy="249.21455"
       fx="179.88138"
       fy="249.21455"
       r="64.736824"
       gradientUnits="userSpaceOnUse" /><radialGradient
       inkscape:collect="always"
       xlink:href="#linearGradient3933"
       id="radialGradient3947"
       cx="179.88138"
       cy="249.21455"
       fx="179.88138"
       fy="249.21455"
       r="64.736824"
       gradientUnits="userSpaceOnUse" /><radialGradient
       inkscape:collect="always"
       xlink:href="#linearGradient3933"
       id="radialGradient3949"
       cx="179.88138"
       cy="249.21455"
       fx="179.88138"
       fy="249.21455"
       r="64.736824"
       gradientUnits="userSpaceOnUse" /><filter
       inkscape:collect="always"
       id="filter4127"
       x="-0.17000000000000001"
       width="1.3408361"
       y="-0.2467484"
       height="1.4934968"><feGaussianBlur
         inkscape:collect="always"
         stdDeviation="33.534707"
         id="feGaussianBlur4129" /></filter><clipPath
       clipPathUnits="userSpaceOnUse"
       id="clipPath4412"><path
         sodipodi:nodetypes="ccccscscsc"
         inkscape:connector-curvature="0"
         id="path4414"
         d="m 68.798678,212.90844 c -87.45013,45.07338 -40.472066,170.59395 49.405972,149.39851 31.10331,77.88462 140.49121,67.45508 155.52379,-2.04674 38.7366,27.68781 86.75123,6.95331 100.22677,-26.58601 82.14242,19.50143 125.50786,-52.29175 120.17574,-107.60233 -7.37405,-76.49169 -79.15575,-112.62121 -143.89477,-80.41343 -13.23667,-25.78131 -35.45151,-45.48451 -66.42547,-45.48451 -24.72924,0 -51.43091,13.29911 -66.07453,30.95326 C 195.30473,89.05 141.00909,83.03334 107.0706,97.69838 66.331718,115.30192 45.211088,166.39059 68.798678,212.90844 z"
         style="fill:none;stroke:#b7ddef;stroke-width:6;stroke-miterlimit:4;stroke-opacity:1;stroke-dasharray:none" /></clipPath><filter
       inkscape:collect="always"
       id="filter4915"><feGaussianBlur
         inkscape:collect="always"
         stdDeviation="9.9805676"
         id="feGaussianBlur4917" /></filter></defs><sodipodi:namedview
     pagecolor="#ffffff"
     bordercolor="#666666"
     borderopacity="1"
     objecttolerance="10"
     gridtolerance="10"
     guidetolerance="10"
     inkscape:pageopacity="0"
     inkscape:pageshadow="2"
     inkscape:window-width="1920"
     inkscape:window-height="1031"
     id="namedview4530"
     showgrid="false"
     inkscape:zoom="1.8851577"
     inkscape:cx="192.37756"
     inkscape:cy="233.05575"
     inkscape:window-x="0"
     inkscape:window-y="0"
     inkscape:window-maximized="1"
     inkscape:current-layer="layer2"
     inkscape:snap-page="true" /><linearGradient
     id="SVGID_1_"
     gradientUnits="userSpaceOnUse"
     x1="7.6578999"
     y1="4.9257002"
     x2="337.7207"
     y2="340.5159"
     gradientTransform="translate(0,170.4)"><stop
       offset="0"
       style="stop-color:#468FFC"
       id="stop4516" /><stop
       offset="0.2091"
       style="stop-color:#3C85F5"
       id="stop4518" /><stop
       offset="0.65"
       style="stop-color:#2D75EB"
       id="stop4520" /><stop
       offset="1"
       style="stop-color:#2870E7"
       id="stop4522" /></linearGradient><g
     inkscape:groupmode="layer"
     id="layer2"
     inkscape:label="Calque#1"
     style="display:inline"><path
       style="fill:none;stroke:#b7ddef;stroke-width:6;stroke-miterlimit:4;stroke-opacity:1;stroke-dasharray:none"
       d="m 68.798678,212.90844 c -87.45013,45.07338 -40.472066,170.59395 49.405972,149.39851 31.10331,77.88462 140.49121,67.45508 155.52379,-2.04674 38.7366,27.68781 86.75123,6.95331 100.22677,-26.58601 82.14242,19.50143 125.50786,-52.29175 120.17574,-107.60233 -7.37405,-76.49169 -79.15575,-112.62121 -143.89477,-80.41343 -13.23667,-25.78131 -35.45151,-45.48451 -66.42547,-45.48451 -24.72924,0 -51.43091,13.29911 -66.07453,30.95326 C 195.30473,89.05 141.00909,83.03334 107.0706,97.69838 66.331718,115.30192 45.211088,166.39059 68.798678,212.90844 z"
       id="path4901"
       inkscape:connector-curvature="0"
       sodipodi:nodetypes="ccccscscsc" /><path
       sodipodi:nodetypes="ccccscscsc"
       inkscape:connector-curvature="0"
       id="path4131"
       d="m 68.798678,212.90844 c -87.45013,45.07338 -40.472066,170.59395 49.405972,149.39851 31.10331,77.88462 140.49121,67.45508 155.52379,-2.04674 38.7366,27.68781 86.75123,6.95331 100.22677,-26.58601 82.14242,19.50143 125.50786,-52.29175 120.17574,-107.60233 -7.37405,-76.49169 -79.15575,-112.62121 -143.89477,-80.41343 -13.23667,-25.78131 -35.45151,-45.48451 -66.42547,-45.48451 -24.72924,0 -51.43091,13.29911 -66.07453,30.95326 C 195.30473,89.05 141.00909,83.03334 107.0706,97.69838 66.331718,115.30192 45.211088,166.39059 68.798678,212.90844 z"
       style="fill:#ffffff;fill-opacity:1;stroke:#b7ddef;stroke-width:6;stroke-miterlimit:4;stroke-opacity:1;stroke-dasharray:none" /><path
       sodipodi:nodetypes="ccccscscsc"
       inkscape:connector-curvature="0"
       id="path3953"
       d="m 68.798678,212.90844 c -87.45013,45.07338 -40.472066,170.59395 49.405972,149.39851 31.10331,77.88462 140.49121,67.45508 155.52379,-2.04674 38.7366,27.68781 86.75123,6.95331 100.22677,-26.58601 82.14242,19.50143 125.50786,-52.29175 120.17574,-107.60233 -7.37405,-76.49169 -79.15575,-112.62121 -143.89477,-80.41343 -13.23667,-25.78131 -35.45151,-45.48451 -66.42547,-45.48451 -24.72924,0 -51.43091,13.29911 -66.07453,30.95326 C 195.30473,89.05 141.00909,83.03334 107.0706,97.69838 66.331718,115.30192 45.211088,166.39059 68.798678,212.90844 z"
       style="fill:none;stroke:#7cc1e2;stroke-width:60;stroke-miterlimit:4;stroke-opacity:1;stroke-dasharray:none;filter:url(#filter4127)"
       clip-path="url(#clipPath4412)" /><path
       clip-path="none"
       style="fill:none;stroke:#7cc1e2;stroke-width:5;stroke-miterlimit:4;stroke-opacity:1;stroke-dasharray:none;filter:url(#filter4915)"
       d="m 68.798678,212.90844 c -87.45013,45.07338 -40.472066,170.59395 49.405972,149.39851 31.10331,77.88462 140.49121,67.45508 155.52379,-2.04674 38.7366,27.68781 86.75123,6.95331 100.22677,-26.58601 82.14242,19.50143 125.50786,-52.29175 120.17574,-107.60233 -7.37405,-76.49169 -79.15575,-112.62121 -143.89477,-80.41343 -13.23667,-25.78131 -35.45151,-45.48451 -66.42547,-45.48451 -24.72924,0 -51.43091,13.29911 -66.07453,30.95326 C 195.30473,89.05 141.00909,83.03334 107.0706,97.69838 66.331718,115.30192 45.211088,166.39059 68.798678,212.90844 z"
       id="path4899"
       inkscape:connector-curvature="0"
       sodipodi:nodetypes="ccccscscsc" /></g><g
     inkscape:groupmode="layer"
     id="layer3"
     inkscape:label="Calque#2"
     style="display:inline"><g
       id="g4845"><path
         sodipodi:nodetypes="cssssccsscc"
         inkscape:connector-curvature="0"
         id="path3788"
         d="m 232.62583,297.36141 c 4.17277,3.95696 9.67169,1.82159 13.30791,-1.728 12.21442,-11.92343 18.53773,-57.0928 29.59056,-81.22744 7.05642,-15.40818 16.59975,-22.12844 29.46116,-16.07164 4.17358,1.96546 5.02924,7.11907 3.36826,8.43303 -1.49519,1.18279 -3.72771,1.46815 -6.19693,-3.21155 -9.93462,-13.11281 -18.03752,5.75638 -20.6512,12.77113 -9.32335,25.17663 -15.84856,69.14566 -30.83311,81.87327 -5.2249,4.43795 -15.62601,5.34961 -21.16717,1.5286 -4.2025,-2.89791 -4.96967,-7.58287 -1.29168,-8.66851 1.73791,-0.41914 4.22446,1.63748 4.4122,6.30111 z"
         style="fill:#211d1e;fill-opacity:1;stroke:none" /><path
         inkscape:connector-curvature="0"
         id="path3790"
         d="m 262.57787,222.0109 -0.5428,2.17119 26.59704,0 0.60259,-2.24888 z"
         style="fill:#211d1e;fill-opacity:1;stroke:none" /><g
         transform="scale(0.97740466,1.0231177)"
         style="font-size:87.70890808px;font-style:normal;font-weight:normal;line-height:125%;letter-spacing:0px;word-spacing:0px;fill:#938c8c;fill-opacity:1;stroke:none;font-family:Caslon 540;-inkscape-font-specification:Caslon 540"
         id="text3792"><path
           d="m 167.18198,247.7307 0,-13.23342 c -5.39617,2.05569 -9.12208,3.86868 -11.17774,5.43898 -2.02714,1.54177 -3.0407,3.26911 -3.04069,5.18202 -1e-5,1.77017 0.62811,3.24055 1.88437,4.41114 1.28478,1.14205 2.88364,1.71307 4.79658,1.71306 1.08492,1e-5 2.16986,-0.24268 3.25482,-0.72805 1.11347,-0.51391 2.54103,-1.44182 4.28266,-2.78373 m -0.25696,2.18416 c -2.1699,2.05568 -4.22557,3.59743 -6.16703,4.62527 -1.94149,1.02784 -3.81158,1.54176 -5.61029,1.54176 -2.4554,0 -4.4397,-0.71378 -5.95289,-2.14133 -1.51322,-1.4561 -2.26982,-3.35475 -2.26982,-5.69594 0,-3.14061 1.44183,-5.86723 4.32549,-8.17988 2.88365,-2.31262 8.2798,-4.89649 16.18846,-7.75162 l 0,-8.77946 c -2e-5,-1.82723 -0.39974,-3.15486 -1.19914,-3.98287 -0.7709,-0.8565 -2.01287,-1.28476 -3.72592,-1.2848 -2.14135,4e-5 -4.01144,0.47113 -5.61028,1.41328 -1.57033,0.94222 -2.35548,2.11281 -2.35547,3.51178 -10e-6,2.62673 -0.32835,4.48255 -0.98501,5.56746 -0.65668,1.05641 -1.7559,1.58461 -3.29765,1.58458 -1.02784,3e-5 -1.84155,-0.28548 -2.44112,-0.85653 -0.59957,-0.57099 -0.89936,-1.35615 -0.89936,-2.35546 0,-2.39826 2.0414,-4.91075 6.12421,-7.53749 4.08279,-2.65521 8.17987,-3.98283 12.29124,-3.98287 3.22625,4e-5 5.51033,0.82802 6.85226,2.48394 1.34187,1.62745 2.01282,5.06785 2.01285,10.32122 l 0,21.15634 c -3e-5,0.74234 0.157,1.32763 0.47109,1.7559 0.31403,0.39971 0.7423,0.59957 1.2848,0.59957 0.62809,0 1.14201,-0.25696 1.54176,-0.77088 0.39968,-0.54247 0.64236,-1.27052 0.72805,-2.18416 l 1.67024,0 c -0.257,2.22699 -0.98505,3.94005 -2.18416,5.1392 -1.17063,1.17059 -2.75521,1.75589 -4.75375,1.75589 -1.74165,0 -3.14065,-0.51392 -4.19701,-1.54176 -1.05642,-1.02784 -1.67026,-2.49822 -1.84155,-4.41114"
           style="font-variant:normal;font-stretch:normal;line-height:150%;fill:#938c8c;font-family:Caslon540 BT;-inkscape-font-specification:Caslon540 BT"
           id="path4897"
           inkscape:connector-curvature="0" /></g><g
         transform="scale(0.96499734,1.0362723)"
         style="font-size:88.83661652px;font-style:normal;font-weight:normal;line-height:125%;letter-spacing:0px;word-spacing:0px;fill:#938c8c;fill-opacity:1;stroke:none;font-family:Caslon 540;-inkscape-font-specification:Caslon 540"
         id="text3796"><path
           d="m 194.1204,245.00504 c -2e-5,2.34237 0.31808,3.78828 0.9543,4.33772 0.63618,0.54945 1.92304,0.82417 3.86057,0.82417 l 0,1.69171 -16.43998,0 0.0434,-1.69171 c 1.99535,-0.0867 3.29666,-0.47715 3.90395,-1.17119 0.63619,-0.69403 0.95429,-2.48695 0.9543,-5.37878 l 0,-42.37957 c -1e-5,-1.9953 -0.28919,-3.36892 -0.86754,-4.12084 -0.54946,-0.75182 -1.61943,-1.48923 -3.20992,-2.21224 l 0,-1.04106 c 1.73508,-0.52046 3.44125,-1.12775 5.11852,-1.82184 1.70616,-0.72289 3.39787,-1.54706 5.07513,-2.4725 l 0.60729,0 0,55.43613"
           style="font-variant:normal;font-stretch:normal;line-height:150%;fill:#938c8c;font-family:Caslon540 BT;-inkscape-font-specification:Caslon540 BT"
           id="path4894"
           inkscape:connector-curvature="0" /></g><g
         transform="scale(0.94213927,1.0614142)"
         style="font-size:84.54431152px;font-style:normal;font-weight:normal;line-height:125%;letter-spacing:0px;word-spacing:0px;fill:#938c8c;fill-opacity:1;stroke:none;font-family:Caslon 540;-inkscape-font-specification:Caslon 540"
         id="text3800"><path
           d="m 230.46328,218.56453 c 0.99072,3e-5 1.72003,-0.20638 2.18791,-0.61922 0.46783,-0.41278 0.70176,-1.04576 0.70178,-1.89894 -2e-5,-1.78883 -0.74309,-3.27496 -2.22919,-4.45839 -1.45864,-1.18337 -3.33006,-1.77507 -5.61427,-1.7751 -2.4769,3e-5 -4.62353,0.77062 -6.4399,2.31176 -1.78887,1.5412 -3.05484,3.68783 -3.79789,6.43989 l 15.19156,0 m 10.15522,2.2292 -25.67703,0 c -0.22018,1.59624 -0.3853,2.8622 -0.49538,3.79789 -0.0826,0.93573 -0.12385,1.7476 -0.12384,2.4356 -1e-5,4.1832 1.37603,7.66459 4.12814,10.4442 2.75208,2.7521 6.16467,4.12814 10.23779,4.12814 2.97223,0 5.61424,-0.78435 7.92603,-2.35304 2.31172,-1.59621 3.9905,-3.74284 5.03633,-6.4399 l 1.60997,0.49537 c -1.34856,4.23824 -3.60528,7.58203 -6.77015,10.03139 -3.13741,2.44936 -6.77017,3.67404 -10.89829,3.67404 -5.03635,0 -9.23328,-1.74758 -12.59083,-5.24274 -3.33003,-3.52267 -4.99505,-7.95354 -4.99505,-13.29261 0,-6.21971 1.67878,-11.20099 5.03634,-14.94387 3.38506,-3.74281 7.92601,-5.61423 13.62286,-5.61427 4.07307,4e-5 7.66455,1.1972 10.77444,3.59148 3.13735,2.39436 4.70605,4.92628 4.70608,7.59578 -3e-5,0.60549 -0.11012,1.04582 -0.33025,1.32101 -0.2202,0.24771 -0.61925,0.37155 -1.19716,0.37153"
           style="font-variant:normal;font-stretch:normal;line-height:150%;fill:#938c8c;font-family:Caslon540 BT;-inkscape-font-specification:Caslon540 BT"
           id="path4891"
           inkscape:connector-curvature="0" /></g><g
         transform="scale(1.0021535,0.99785116)"
         style="font-size:89.92977905px;font-style:normal;font-weight:normal;line-height:125%;letter-spacing:0px;word-spacing:0px;fill:#938c8c;fill-opacity:1;stroke:none;font-family:Caslon 540;-inkscape-font-specification:Caslon 540"
         id="text3804"><path
           d="m 232.10997,259.58019 0,-11.06558 1.80035,0 c 0.84894,4.27401 2.03453,7.34778 3.55679,9.22131 1.52224,1.87354 3.54214,2.81031 6.05972,2.81031 2.31263,0 4.2008,-0.74649 5.66453,-2.23946 1.46367,-1.52225 2.19552,-3.43969 2.19555,-5.75235 -3e-5,-1.75643 -0.52696,-3.27867 -1.5808,-4.56674 -1.05389,-1.28805 -3.10306,-2.73711 -6.14754,-4.3472 -4.80095,-2.42972 -7.84545,-4.43499 -9.1335,-6.01581 -1.28806,-1.61004 -1.93209,-3.55676 -1.93208,-5.84016 -10e-6,-3.10301 1.17095,-5.64985 3.51288,-7.64052 2.37118,-1.99059 5.44495,-2.98591 9.22132,-2.98595 1.90279,4e-5 3.76169,0.26351 5.5767,0.7904 1.84423,0.4977 3.64458,1.25882 5.40105,2.28337 l 0,9.52869 -1.80035,0 c -0.40986,-3.27865 -1.52227,-5.91331 -3.33724,-7.90398 -1.81501,-1.9906 -3.96665,-2.98591 -6.45492,-2.98595 -1.99065,4e-5 -3.60072,0.52697 -4.83021,1.5808 -1.20025,1.0539 -1.80036,2.44441 -1.80035,4.17154 -1e-5,2.48833 1.84425,4.74242 5.53279,6.7623 0.26345,0.1464 0.483,0.26349 0.65866,0.35129 0.46837,0.26349 1.20022,0.65869 2.19555,1.1856 7.69904,4.12765 11.54857,8.50412 11.5486,13.12939 -3e-5,3.65926 -1.40518,6.65985 -4.21546,9.00176 -2.81033,2.34193 -6.41103,3.51289 -10.80211,3.51289 -1.90282,0 -3.77636,-0.26347 -5.62061,-0.7904 -1.815,-0.49766 -3.57144,-1.22951 -5.26932,-2.19555"
           style="font-variant:normal;font-stretch:normal;line-height:150%;fill:#938c8c;font-family:Caslon540 BT;-inkscape-font-specification:Caslon540 BT"
           id="path4888"
           inkscape:connector-curvature="0" /></g><g
         transform="scale(1.0021535,0.99785113)"
         style="font-size:89.92977905px;font-style:normal;font-weight:normal;line-height:125%;letter-spacing:0px;word-spacing:0px;fill:#938c8c;fill-opacity:1;stroke:none;font-family:Caslon 540;-inkscape-font-specification:Caslon 540"
         id="text3808"><path
           d="m 111.81649,259.58019 0,-11.06558 1.80036,0 c 0.84894,4.27401 2.03453,7.34778 3.55679,9.22131 1.52224,1.87354 3.54214,2.81031 6.05972,2.81031 2.31263,0 4.2008,-0.74649 5.66452,-2.23946 1.46368,-1.52225 2.19553,-3.43969 2.19555,-5.75235 -2e-5,-1.75643 -0.52695,-3.27867 -1.58079,-4.56674 -1.05389,-1.28805 -3.10307,-2.73711 -6.14755,-4.3472 -4.80095,-2.42972 -7.84544,-4.43499 -9.13349,-6.01581 -1.28806,-1.61004 -1.93209,-3.55676 -1.93208,-5.84016 -1e-5,-3.10301 1.17095,-5.64985 3.51288,-7.64052 2.37118,-1.99059 5.44495,-2.98591 9.22131,-2.98595 1.90279,4e-5 3.76169,0.26351 5.5767,0.7904 1.84424,0.4977 3.64459,1.25882 5.40106,2.28337 l 0,9.52869 -1.80035,0 c -0.40987,-3.27865 -1.52228,-5.91331 -3.33724,-7.90398 -1.81501,-1.9906 -3.96665,-2.98591 -6.45492,-2.98595 -1.99065,4e-5 -3.60072,0.52697 -4.83021,1.5808 -1.20025,1.0539 -1.80037,2.44441 -1.80036,4.17154 -1e-5,2.48833 1.84425,4.74242 5.53279,6.7623 0.26345,0.1464 0.48301,0.26349 0.65867,0.35129 0.46837,0.26349 1.20022,0.65869 2.19555,1.1856 7.69904,4.12765 11.54857,8.50412 11.5486,13.12939 -3e-5,3.65926 -1.40518,6.65985 -4.21546,9.00176 -2.81033,2.34193 -6.41103,3.51289 -10.80211,3.51289 -1.90283,0 -3.77636,-0.26347 -5.62061,-0.7904 -1.815,-0.49766 -3.57144,-1.22951 -5.26933,-2.19555"
           style="font-variant:normal;font-stretch:normal;line-height:150%;fill:#938c8c;font-family:Caslon540 BT;-inkscape-font-specification:Caslon540 BT"
           id="path4885"
           inkscape:connector-curvature="0" /></g><g
         transform="scale(1.0021535,0.99785113)"
         style="font-size:89.92977905px;font-style:normal;font-weight:normal;line-height:125%;letter-spacing:0px;word-spacing:0px;fill:#211d1e;fill-opacity:1;stroke:none;font-family:Caslon 540;-inkscape-font-specification:Caslon 540"
         id="text3812"><path
           d="m 302.86378,260.45841 c 3.39576,0 6.05969,-1.65398 7.9918,-4.96195 1.96133,-3.30795 2.94201,-7.86006 2.94204,-13.65633 -3e-5,-5.8255 -0.96607,-10.36297 -2.89813,-13.61242 -1.93211,-3.24937 -4.61068,-4.87408 -8.03571,-4.87412 -3.42508,4e-5 -6.11829,1.63938 -8.07963,4.91804 -1.9321,3.27872 -2.89814,7.80155 -2.89813,13.5685 -10e-6,5.85482 0.96603,10.42156 2.89813,13.70024 1.96134,3.2787 4.65455,4.91804 8.07963,4.91804 m 18.48654,-18.61828 c -4e-5,6.23538 -1.71257,11.27051 -5.13759,15.1054 -3.39582,3.80562 -7.84547,5.70843 -13.34895,5.70843 -5.53281,0 -9.99709,-1.90281 -13.39287,-5.70843 -3.36651,-3.80562 -5.04977,-8.84074 -5.04976,-15.1054 -1e-5,-6.23534 1.68325,-11.24119 5.04976,-15.01757 3.3665,-3.77631 7.83079,-5.66448 13.39287,-5.66452 5.53276,4e-5 9.99704,1.90285 13.39286,5.70843 3.39575,3.77638 5.09364,8.7676 5.09368,14.97366"
           style="font-variant:normal;font-stretch:normal;line-height:150%;fill:#211d1e;font-family:Caslon540 BT;-inkscape-font-specification:Caslon540 BT"
           id="path4882"
           inkscape:connector-curvature="0" /></g><g
         transform="scale(1.0021535,0.99785113)"
         style="font-size:89.92977905px;font-style:normal;font-weight:normal;line-height:125%;letter-spacing:0px;word-spacing:0px;fill:#211d1e;fill-opacity:1;stroke:none;font-family:Caslon 540;-inkscape-font-specification:Caslon 540"
         id="text3816"><path
           d="m 322.95232,259.84365 c 2.04918,-0.0878 3.38115,-0.48302 3.99591,-1.18559 0.61474,-0.73185 0.92212,-2.54684 0.92213,-5.44497 l 0,-20.24298 c -1e-5,-1.96133 -0.29275,-3.33721 -0.87822,-4.12764 -0.58549,-0.79037 -1.71254,-1.55149 -3.38115,-2.28337 l 0,-1.05387 c 2.0199,-0.67326 3.8788,-1.3612 5.5767,-2.06382 1.69788,-0.70253 3.29331,-1.46366 4.7863,-2.28337 l 0.61476,0 0,6.49883 c 1.37586,-2.16624 2.88347,-3.83486 4.52283,-5.00586 1.63932,-1.17092 3.27867,-1.7564 4.91804,-1.75644 1.4344,4e-5 2.56144,0.39524 3.38115,1.1856 0.81964,0.79044 1.22947,1.87358 1.2295,3.24942 -3e-5,0.96608 -0.29277,1.75647 -0.87822,2.37119 -0.58551,0.61479 -1.31735,0.92217 -2.19555,0.92213 -0.61478,4e-5 -1.56618,-0.24879 -2.85421,-0.74648 -1.25881,-0.49763 -2.25413,-0.74646 -2.98595,-0.74649 -1.05389,3e-5 -2.06384,0.35132 -3.02987,1.05386 -0.93678,0.70261 -1.63936,1.63938 -2.10772,2.81031 l 0,23.62413 c -2e-5,2.40047 0.35127,3.87881 1.05386,4.43501 0.73183,0.52694 2.48827,0.7904 5.26932,0.7904 l 0,1.71253 -18.00352,0 0.0439,-1.71253"
           style="font-variant:normal;font-stretch:normal;line-height:150%;fill:#211d1e;font-family:Caslon540 BT;-inkscape-font-specification:Caslon540 BT"
           id="path4879"
           inkscape:connector-curvature="0" /></g><g
         transform="scale(1.0021535,0.99785113)"
         style="font-size:89.92977905px;font-style:normal;font-weight:normal;line-height:125%;letter-spacing:0px;word-spacing:0px;fill:#211d1e;fill-opacity:1;stroke:none;font-family:Caslon 540;-inkscape-font-specification:Caslon 540"
         id="text3820"><path
           d="m 381.47205,249.78803 c -1.75648,4.09837 -4.03985,7.25996 -6.85012,9.48478 -2.81034,2.19555 -5.95729,3.29333 -9.44087,3.29333 -5.03515,0 -9.25061,-1.94672 -12.64638,-5.84017 -3.36652,-3.89344 -5.04977,-8.81147 -5.04977,-14.7541 0,-6.00115 1.78571,-10.97773 5.35715,-14.92975 3.60069,-3.98123 8.10888,-5.97186 13.52459,-5.9719 3.83487,4e-5 7.18674,1.03926 10.05563,3.11768 2.89809,2.04922 4.34715,4.40577 4.34719,7.06968 -4e-5,0.87825 -0.35133,1.63937 -1.05387,2.28337 -0.67333,0.64405 -1.46373,0.96607 -2.37119,0.96604 -1.78575,3e-5 -3.11771,-1.72714 -3.9959,-5.1815 -0.11713,-0.43908 -0.20495,-0.76109 -0.26347,-0.96604 -0.49769,-1.8735 -1.2149,-3.20547 -2.15164,-3.99591 -0.90752,-0.79036 -2.1663,-1.18555 -3.77635,-1.18559 -3.60072,4e-5 -6.58667,1.52228 -8.95785,4.56674 -2.34193,3.04453 -3.51289,6.9087 -3.51288,11.59251 -1e-5,5.2108 1.31732,9.51407 3.95199,12.90985 2.63465,3.39579 5.8987,5.09368 9.79216,5.09367 2.45899,1e-5 4.66918,-0.68793 6.63057,-2.06381 1.96132,-1.37587 3.64458,-3.42505 5.04976,-6.14755 l 1.36125,0.65867"
           style="font-variant:normal;font-stretch:normal;line-height:150%;fill:#211d1e;font-family:Caslon540 BT;-inkscape-font-specification:Caslon540 BT"
           id="path4876"
           inkscape:connector-curvature="0" /></g><g
         transform="scale(0.94960021,1.0530747)"
         style="font-size:85.21382904px;font-style:normal;font-weight:normal;line-height:125%;letter-spacing:0px;word-spacing:0px;fill:#211d1e;fill-opacity:1;stroke:none;font-family:Caslon 540;-inkscape-font-specification:Caslon 540"
         id="text3824"><path
           d="m 428.64247,220.29538 c 0.99857,3e-5 1.73365,-0.20801 2.20524,-0.62412 0.47153,-0.41606 0.70731,-1.05405 0.70734,-1.91398 -3e-5,-1.803 -0.74898,-3.3009 -2.24685,-4.4937 -1.47019,-1.19274 -3.35643,-1.78912 -5.65873,-1.78916 -2.49652,4e-5 -4.66015,0.77672 -6.4909,2.33007 -1.80304,1.55341 -3.07902,3.71704 -3.82796,6.49089 l 15.31186,0 m 10.23564,2.24685 -25.88037,0 c -0.22192,1.60888 -0.38835,2.88487 -0.4993,3.82797 -0.0832,0.94314 -0.12483,1.76144 -0.12482,2.45489 -1e-5,4.21632 1.38693,7.72529 4.16083,10.5269 2.77387,2.7739 6.21349,4.16084 10.31886,4.16083 2.99577,1e-5 5.6587,-0.79055 7.9888,-2.37167 2.33003,-1.60885 4.0221,-3.77248 5.07621,-6.4909 l 1.62272,0.4993 c -1.35924,4.2718 -3.63382,7.64207 -6.82376,10.11082 -3.16226,2.46876 -6.82379,3.70314 -10.98459,3.70314 -5.07623,0 -9.30641,-1.76142 -12.69054,-5.28425 -3.35641,-3.55057 -5.03461,-8.01653 -5.03461,-13.39788 0,-6.26896 1.69207,-11.28969 5.07622,-15.06221 3.41187,-3.77245 7.98878,-5.65869 13.73074,-5.65873 4.10533,4e-5 7.72525,1.20668 10.85977,3.61992 3.1622,2.41332 4.74331,4.96529 4.74335,7.65593 -4e-5,0.61028 -0.11099,1.0541 -0.33287,1.33147 -0.22194,0.24967 -0.62416,0.3745 -1.20664,0.37447"
           style="font-variant:normal;font-stretch:normal;line-height:150%;fill:#211d1e;font-family:Caslon540 BT;-inkscape-font-specification:Caslon540 BT"
           id="path4873"
           inkscape:connector-curvature="0" /></g><g
         style="stroke:#211d1e;stroke-width:77.98119354;stroke-miterlimit:4;stroke-opacity:0.53874542;stroke-dasharray:none"
         transform="matrix(0.01038712,0,0,0.01038712,412.60427,222.88315)"
         id="g2226"><g
           style="fill:none;stroke:#938c8c;stroke-width:111.16901398;stroke-miterlimit:4;stroke-opacity:1;stroke-dasharray:none"
           id="g2193"
           transform="matrix(0.86947042,0,0,0.86947042,1200.9965,-256.59839)"><path
             transform="matrix(3.857923,0,0,2.7717267,444.69175,-913.68849)"
             d="m 133.57142,536.14618 a 124.41928,173.17725 0 1 1 -248.83856,0 124.41928,173.17725 0 1 1 248.83856,0 z"
             sodipodi:ry="173.17725"
             sodipodi:rx="124.41928"
             sodipodi:cy="536.14618"
             sodipodi:cx="9.1521416"
             id="path2185"
             style="fill:none;stroke:#938c8c;stroke-width:33.99631119;stroke-miterlimit:4;stroke-opacity:1;stroke-dasharray:none"
             sodipodi:type="arc" /></g><g
           id="text3845"
           style="font-size:704.2756958px;font-style:normal;font-weight:normal;line-height:125%;letter-spacing:0px;word-spacing:0px;fill:#938c8c;fill-opacity:1;stroke:none;font-family:Helvetica CE 55 Roman;-inkscape-font-specification:Helvetica CE 55 Roman"><path
             id="path3850"
             style="font-variant:normal;font-weight:bold;font-stretch:normal;fill:#938c8c;fill-opacity:1;stroke:none;font-family:Arial;-inkscape-font-specification:Arial Bold"
             d="m 1426.5857,487.61145 0,-504.134848 214.2402,0 c 53.8749,5.04e-4 92.9631,4.585627 117.2646,13.7553842 24.53,8.9414815 44.1314,24.9894138 58.8043,48.1438468 14.6719,23.155316 22.0081,49.634405 22.0086,79.437347 -5e-4,37.82763 -11.1194,69.1211 -33.3568,93.8805 -22.2383,24.53068 -55.4804,40.00547 -99.7265,46.42442 22.0082,12.83857 40.1195,26.93783 54.3337,42.29781 14.4428,15.36035 33.8149,42.64183 58.1165,81.84454 l 61.5554,98.351 -121.7352,0 -73.5913,-109.69919 c -26.1355,-39.2027 -44.0175,-63.84774 -53.646,-73.9352 -9.629,-10.31634 -19.8309,-17.30865 -30.6057,-20.97696 -10.7753,-3.89715 -27.8549,-5.84583 -51.2388,-5.84604 l -20.6331,0 0,210.45739 -101.7899,0 m 101.7899,-290.92639 75.3107,0 c 48.8314,3e-4 79.3224,-2.06301 91.4733,-6.18992 12.1503,-4.12631 21.6644,-11.23325 28.5425,-21.32085 6.8773,-10.08695 10.3161,-22.69604 10.3165,-37.8273 -4e-4,-16.9646 -4.5855,-30.60535 -13.7554,-40.922273 -8.9413,-10.545387 -21.665,-17.193816 -38.1712,-19.945307 -8.2535,-1.145864 -33.0132,-1.719005 -74.2791,-1.719423 l -79.4373,0 0,127.925073"
             inkscape:connector-curvature="0" /></g></g></g></g><g
     inkscape:groupmode="layer"
     id="layer4"
     inkscape:label="Calque#3"
     style="display:inline"><path
       style="opacity:0.27272728;fill:#000000;fill-opacity:0.03137255;stroke:none;display:inline"
       d="m 34.375,243.375 c -34.90355051,54.67536 9.973971,136.3578 83.84375,118.9375 31.10331,77.88462 140.46742,67.43932 155.5,-2.0625 33.25734,23.77139 73.3568,11.85457 92.5625,-13.21875 C 227.51612,342.3138 109.29478,315.05105 34.375,243.375 z"
       id="path3864"
       inkscape:connector-curvature="0" /></g></svg>