<svg xmlns="http://www.w3.org/2000/svg" width="512" height="512" viewBox="0 0 512 512"><defs><filter x="0" y="0" width="1" height="1" color-interpolation-filters="sRGB" id="a"><feColorMatrix type="saturate" values="0"/></filter></defs><path d="m 111.30917,123.60191 c 13.50677,0.041 27.06558,0 40.59127,0 2.32449,0 4.21163,-1.89315 4.19822,-4.19971 -0.0864,-14.85563 -0.33806,-29.709753 -0.49245,-44.564416 -0.0927,-8.918141 2.36287,-16.997165 5.9556,-23.278245 L 81.984989,130.44421 c 11.456039,-6.03925 20.980741,-6.86763 29.324181,-6.8423 z m 315.6432,-8.51043 C 420.72823,82.07641 394.67012,81.722407 348.42973,75.634954 327.96082,72.940264 303.82658,73.412544 289.26954,73.86254 287.52245,61.895953 279.13013,50.960664 269.73723,47.178737 244.71519,37.10395 205.94592,39.184477 196.12578,42.321914 c -18.0733,5.774238 -27.08788,15.126403 -26.86112,32.616443 0.20324,15.675702 0.36173,28.659803 0.4999,44.463843 0.077,8.8051 -7.14105,15.97184 -15.98524,15.98302 -7.53499,0.01 -27.04739,0 -40.57109,0 -42.434206,0 -40.396609,33.82349 -36.13519,60.19279 1.804506,11.16613 13.666746,89.52531 25.20569,113.34884 4.48655,9.26302 7.37696,13.31096 16.25644,17.2123 19.51919,8.57606 64.36787,17.72069 85.3493,20.39953 20.94487,2.67418 34.30653,8.41481 41.92329,-8.11258 8.4201,-18.27052 11.75548,-41.58252 11.43912,-62.15072 0,-1.34553 1.97432,-1.40736 1.97432,0 0,9.34262 -1.78548,42.40628 23.18963,51.27261 9.8578,3.49959 30.30874,6.63593 51.09233,9.04908 18.78768,2.18141 32.42646,9.55344 32.42646,57.76103 0,29.32939 -6.16061,33.35103 -38.36507,33.35103 -26.10566,0 -36.05547,0.67574 -36.05547,-20.06427 0,-16.76231 16.57829,-15.00554 28.86524,-15.00554 5.48786,0 1.50496,-4.08198 1.50496,-14.42367 0,-10.28731 6.43364,-16.21931 0.34866,-16.3846 -42.48767,-1.15415 -67.48659,-0.0485 -67.48659,53.08749 0,48.23813 18.46023,57.19556 78.76105,57.19556 47.27929,0 63.93746,-1.55074 83.46738,-62.12092 3.8564,-11.96024 13.20604,-48.44974 18.8603,-109.72056 3.5751,-38.74056 -3.31588,-155.67918 -8.87771,-185.18114 z m -99.11514,130.24971 c 2.04574,-36.21819 48.04092,-36.19461 45.84361,5.31129 -15.75268,-5.89974 -30.33901,-7.74232 -45.84361,-5.31129 z" fill="#7ac143" filter="url(#a)"/></svg>