<svg xmlns="http://www.w3.org/2000/svg" width="512" height="512" viewBox="0 0 409.6 409.6"><g><g><path d="M 112.9125,596.4625 1.4296692,403.36857 208.85074,44.104736 272.1375,320.275 z" transform="matrix(.574 0 0 .574 20.685 20.76)" fill="#0ba25e"/><path d="M 272.1375,320.275 320.21761,236.99781 208.85074,44.104736 z" transform="matrix(.574 0 0 .574 20.685 20.76)" fill="#089156"/></g><g><path transform="matrix(-.287 -.498 .498 -.287 123.584 479.927)" d="M 112.9125,596.4625 1.4296692,403.36857 208.85074,44.104736 272.1375,320.275 z" fill="#2a71e9"/><path transform="matrix(-.287 -.498 .498 -.287 123.584 479.927)" d="M 272.1375,320.275 320.21761,236.99781 208.85074,44.104736 z" fill="#296ad9"/></g><g><path d="M 112.9125,596.4625 1.4296692,403.36857 208.85074,44.104736 272.1375,320.275 z" transform="matrix(-.287 .498 -.498 -.287 469.785 161.23)" fill="#fccd48"/><path d="M 272.1375,320.275 320.21761,236.99781 208.85074,44.104736 z" transform="matrix(-.287 .498 -.498 -.287 469.785 161.23)" fill="#e3b73a"/></g></g></svg>