<svg xmlns="http://www.w3.org/2000/svg" width="512" height="512" viewBox="0 0 512 512"><g fill="#0077C6"><path d="M274.603,149.14c-37.091,0-69.299,36.341-85.576,89.694c-16.276-53.353-48.483-89.694-85.576-89.694 c-21.801,0-41.918,12.556-58.105,33.738V40.683h-0.01C45.111,22.357,36.532,7.612,25.961,7.612 c-10.571,0-19.149,14.745-19.373,33.071H6.579V320.75h0.04c0.861,91.936,43.869,166.02,96.832,166.02 c37.092,0,69.299-36.348,85.576-89.699c16.277,53.352,48.485,89.699,85.576,89.699c53.502,0,96.873-75.584,96.873-168.814 C371.476,224.721,328.104,149.14,274.603,149.14z M103.451,419.211c-32.091,0-58.105-45.334-58.105-101.256 c0-55.928,26.014-101.259,58.105-101.259c32.092,0,58.106,45.332,58.106,101.259C161.557,373.877,135.542,419.211,103.451,419.211z M274.603,419.211c-32.091,0-58.104-45.334-58.104-101.256c0-55.928,26.013-101.259,58.104-101.259 c32.09,0,58.106,45.332,58.106,101.259C332.709,373.877,306.692,419.211,274.603,419.211zM501.787,433.645l-49.611-115.566l49.611-115.564l-0.01-0.011c6.136-14.889,4.358-35.656-4.096-46.722 c-8.45-11.061-20.392-8.25-26.887,6.168l-0.006-0.007l-42.819,99.749l-42.817-99.749l-0.009,0.015 c-6.496-14.423-18.436-17.233-26.89-6.168c-8.453,11.065-10.231,31.832-4.091,46.719l-0.009,0.007l49.61,115.564l-49.61,115.566 l0.009,0.008c-6.141,14.887-4.362,35.652,4.091,46.717c8.454,11.066,20.394,8.256,26.89-6.168l0.009,0.014l42.817-99.746 l42.819,99.746l0.006-0.004c6.495,14.416,18.437,17.229,26.887,6.166c8.454-11.062,10.231-31.832,4.096-46.721L501.787,433.645z"/></g></svg>