<?xml version="1.0" encoding="UTF-8" standalone="no"?>
<!-- Generator: Adobe Illustrator 16.0.0, SVG Export Plug-In . SVG Version: 6.00 Build 0)  -->
<svg xmlns:rdf="http://www.w3.org/1999/02/22-rdf-syntax-ns#" xmlns="http://www.w3.org/2000/svg" enable-background="new 0 0 562.709 560" xml:space="preserve" height="501.82" viewBox="0 0 507.34502 501.81799" width="507.34" version="1.1" y="0px" x="0px" xmlns:cc="http://creativecommons.org/ns#" xmlns:dc="http://purl.org/dc/elements/1.1/"><metadata><rdf:RDF><cc:Work rdf:about=""><dc:format>image/svg+xml</dc:format><dc:type rdf:resource="http://purl.org/dc/dcmitype/StillImage"/><dc:title/></cc:Work></rdf:RDF></metadata><g transform="translate(-35.25,-22.125008)"><path fill="#d2d5dd" d="m385.87,90.395c0.006,48.49-11.064,92.369-28.832,123.97-8.878,15.801-19.424,28.521-31.026,37.25-11.61,8.731-24.231,13.48-37.454,13.484-13.23,0-25.85-4.75-37.46-13.48-17.41-13.09-32.42-35.18-43.03-63.13-10.61-27.94-16.83-61.72-16.83-98.085h-4c0.005,49.1,11.167,93.572,29.345,125.93,9.093,16.176,19.947,29.332,32.108,38.487,12.153,9.152,25.658,14.292,39.86,14.288,14.201,0.003,27.706-5.136,39.859-14.288,18.238-13.737,33.551-36.454,44.361-64.908,10.805-28.458,17.091-62.681,17.092-99.506h-3.999z"/><path fill="#d2d5dd" d="m249.52,69.184c19.562,23.312,34.621,48.03,44.775,72.02,10.157,23.987,15.403,47.246,15.4,67.597,0,12.077-1.844,23.123-5.566,32.71-3.725,9.59-9.312,17.72-16.857,24.055-11.179,9.375-25.522,13.859-41.921,13.865-21.507,0.007-46.474-7.789-71.685-22.361-25.213-14.566-50.669-35.884-73.237-62.782l-3.064,2.571c22.854,27.234,48.637,48.845,74.3,63.675,25.667,14.823,51.215,22.89,73.686,22.897,17.113,0.006,32.486-4.722,44.492-14.801,8.102-6.795,14.084-15.534,18.017-25.671,3.935-10.14,5.836-21.677,5.837-34.158-0.01-21.02-5.4-44.76-15.72-69.15-10.33-24.38-25.59-49.421-45.4-73.026l-3.066,2.57z"/><path fill="#d2d5dd" d="m131.44,140.58c44.841,7.902,83.983,24.712,111.8,45.767,13.91,10.523,24.984,22.104,32.551,34.113,7.57,12.014,11.632,24.431,11.632,36.726,0,3.196-0.274,6.387-0.835,9.566-1.865,10.563-6.734,20.183-14.171,28.742-11.148,12.831-28.109,23.225-49.097,30.378-20.984,7.156-45.972,11.077-73.088,11.076-16.856,0-34.536-1.514-52.591-4.697l-0.694,3.939c18.281,3.223,36.189,4.758,53.285,4.758,36.669-0.005,69.599-7.047,94.483-19.716,12.44-6.338,22.874-14.09,30.721-23.114,7.845-9.021,13.094-19.332,15.091-30.671,0.602-3.41,0.896-6.835,0.896-10.261,0-13.189-4.362-26.348-12.248-38.858-11.837-18.771-31.591-36.155-56.873-50.388-25.285-14.228-56.117-25.293-90.17-31.298l-0.694,3.938z"/><path fill="#d2d5dd" d="m86.869,271.17c42.729-24.677,87.06-37.033,123.68-37.026,17.677-0.001,33.545,2.875,46.569,8.559,13.03,5.689,23.204,14.143,29.702,25.391,5.162,8.945,7.628,19.011,7.63,29.866,0.015,22.363-10.574,48.079-29.716,73.053-19.129,24.976-46.757,49.197-80.554,68.709l2,3.465c34.22-19.761,62.228-44.287,81.729-69.741,19.489-25.457,30.526-51.854,30.541-75.485,0.003-11.458-2.621-22.267-8.165-31.866-6.974-12.084-17.909-21.105-31.567-27.058-13.664-5.958-30.062-8.891-48.169-8.893-37.51,0.007-82.408,12.585-125.68,37.562l2,3.464z"/><path fill="#d2d5dd" d="m136.68,399.86c14.509-39.873,35.773-73.53,59.294-97.141,11.758-11.807,24.076-21.1,36.365-27.421,12.291-6.325,24.538-9.675,36.192-9.673,6.659,0,13.13,1.09,19.345,3.351,7.926,2.886,14.95,7.501,21.064,13.625,9.168,9.181,16.274,21.778,21.078,36.916,4.805,15.134,7.303,32.793,7.302,52.021,0.001,29.136-5.732,61.866-17.753,94.889l3.76,1.367c12.168-33.437,17.992-66.598,17.993-96.256-0.003-26.097-4.504-49.488-13.248-67.989-4.374-9.248-9.814-17.275-16.301-23.773-6.484-6.498-14.021-11.462-22.528-14.557-6.666-2.427-13.617-3.593-20.712-3.593-12.427,0.001-25.287,3.564-38.022,10.117-19.105,9.835-37.969,26.397-54.837,48.052-16.865,21.657-31.729,48.419-42.75,78.699l3.758,1.366z"/><path fill="#d2d5dd" d="m257.55,466.43c-12.02-33.021-17.753-65.751-17.752-94.887-0.003-25.638,4.444-48.484,12.864-66.28,4.208-8.9,9.404-16.536,15.516-22.658,6.114-6.124,13.138-10.738,21.064-13.625,6.215-2.261,12.686-3.351,19.346-3.351,11.654-0.001,23.901,3.349,36.191,9.673,18.435,9.481,36.93,25.655,53.512,46.953,16.586,21.295,31.265,47.703,42.148,77.608l3.76-1.369c-14.7-40.37-36.22-74.49-60.23-98.59-12.004-12.051-24.631-21.6-37.369-28.155-12.735-6.553-25.595-10.116-38.021-10.117-7.097,0-14.047,1.166-20.713,3.593-8.506,3.095-16.043,8.059-22.528,14.557-9.73,9.75-17.105,22.928-22.06,38.532-4.953,15.608-7.488,33.659-7.489,53.232,0.001,29.658,5.825,62.818,17.994,96.254l3.758-1.366z"/><path fill="#d2d5dd" d="m392.93,439.72c-33.798-19.511-61.425-43.733-80.554-68.709-19.142-24.974-29.731-50.689-29.716-73.053,0.002-10.855,2.467-20.921,7.63-29.866,6.498-11.249,16.672-19.703,29.702-25.392,13.024-5.684,28.893-8.56,46.569-8.559,36.621-0.007,80.951,12.349,123.68,37.025l2-3.464c-43.274-24.977-88.172-37.554-125.68-37.561-18.107,0.001-34.505,2.934-48.169,8.892-13.658,5.953-24.594,14.974-31.567,27.058-5.544,9.599-8.168,20.408-8.166,31.866,0.015,23.632,11.051,50.028,30.541,75.485,19.502,25.455,47.51,49.981,81.729,69.741l2.001-3.463z"/><path fill="#d2d5dd" d="m479.47,332.25c-18.055,3.184-35.734,4.697-52.591,4.697-36.155,0.004-68.526-6.977-92.667-19.28-12.073-6.148-22.083-13.62-29.518-22.174-7.437-8.559-12.306-18.179-14.171-28.742-0.561-3.179-0.835-6.369-0.835-9.565,0-12.295,4.063-24.712,11.632-36.727,11.347-18.017,30.601-35.056,55.45-49.035,24.846-13.983,55.271-24.916,88.902-30.845l-0.695-3.939c-45.403,8.01-85.08,25.003-113.52,46.516-14.218,10.76-25.632,22.655-33.521,35.17-7.886,12.511-12.248,25.67-12.248,38.859,0,3.425,0.294,6.85,0.896,10.26,1.997,11.339,7.246,21.651,15.092,30.671,11.773,13.535,29.351,24.214,50.824,31.539,21.479,7.323,46.877,11.289,74.379,11.291,17.096,0,35.004-1.535,53.286-4.758l-0.695-3.938"/><path fill="#d2d5dd" d="m476.68,194.29c-22.568,26.898-48.024,48.215-73.237,62.782-25.211,14.572-50.178,22.368-71.685,22.36-16.399-0.006-30.742-4.49-41.921-13.865-7.546-6.334-13.133-14.465-16.858-24.055-3.722-9.587-5.566-20.633-5.566-32.71-0.003-20.35,5.243-43.608,15.4-67.596,10.155-23.989,25.213-48.707,44.774-72.019l-3.064-2.571c-19.806,23.605-35.069,48.645-45.394,73.031-10.322,24.387-15.713,48.121-15.716,69.155,0,12.481,1.902,24.019,5.837,34.158,3.933,10.137,9.915,18.876,18.017,25.672,12.006,10.079,27.378,14.807,44.491,14.8,22.471-0.007,48.02-8.074,73.686-22.896,25.664-14.829,51.446-36.44,74.301-63.674l-3.065-2.572z"/><circle d="m 263.007,71.480003 c 0,26.457753 -21.44825,47.905997 -47.906,47.905997 -26.45775,0 -47.906,-21.448244 -47.906,-47.905997 0,-26.457752 21.44825,-47.905998 47.906,-47.905998 26.45775,0 47.906,21.448246 47.906,47.905998 z" cy="71.48" cx="215.1" r="47.906" fill="#d2d5dd"/><circle d="m 154.453,164.461 c 0,26.45775 -21.44825,47.906 -47.906,47.906 -26.457755,0 -47.906001,-21.44825 -47.906001,-47.906 0,-26.45775 21.448246,-47.906 47.906001,-47.906 26.45775,0 47.906,21.44825 47.906,47.906 z" cy="164.46" cx="106.55" r="47.906" fill="#d2d5dd"/><circle d="m 131.062,305.466 c 0,26.45776 -21.44825,47.906 -47.906002,47.906 C 56.698246,353.372 35.25,331.92376 35.25,305.466 c 0,-26.45775 21.448246,-47.90599 47.905998,-47.90599 26.457752,0 47.906002,21.44824 47.906002,47.90599 z" cy="305.47" cx="83.156" r="47.906" fill="#d2d5dd"/><circle d="m 203.77999,428.51801 c 0,26.45775 -21.44824,47.90599 -47.906,47.90599 -26.45775,0 -47.906,-21.44824 -47.906,-47.90599 0,-26.45776 21.44825,-47.906 47.906,-47.906 26.45776,0 47.906,21.44824 47.906,47.906 z" cy="428.52" cx="155.87" r="47.906" fill="#d2d5dd"/><circle d="m 338.57901,476.03799 c 0,26.4572 -21.4478,47.905 -47.905,47.905 -26.4572,0 -47.905,-21.4478 -47.905,-47.905 0,-26.4572 21.4478,-47.90499 47.905,-47.90499 26.4572,0 47.905,21.44779 47.905,47.90499 z" cy="476.04" cx="290.67" r="47.905" fill="#d2d5dd"/><circle d="m 472.39001,425.79199 c 0,26.45775 -21.44825,47.906 -47.906,47.906 -26.45775,0 -47.906,-21.44825 -47.906,-47.906 0,-26.45775 21.44825,-47.906 47.906,-47.906 26.45775,0 47.906,21.44825 47.906,47.906 z" cy="425.79" cx="424.48" r="47.906" fill="#d2d5dd"/><circle d="m 542.595,301.29099 c 0,26.4572 -21.4478,47.90499 -47.905,47.90499 -26.4572,0 -47.905,-21.44779 -47.905,-47.90499 0,-26.45721 21.4478,-47.905 47.905,-47.905 26.4572,0 47.905,21.44779 47.905,47.905 z" cy="301.29" cx="494.69" r="47.905" fill="#d2d5dd"/><path fill="#d2d5dd" d="m468.66,208.7c-26.458,0.118-48.001-21.234-48.119-47.691-0.117-26.457,21.234-48.001,47.69-48.12,26.458-0.118,48.002,21.233,48.119,47.691,0.12,26.459-21.233,48.001-47.69,48.12"/><circle d="m 405.932,70.030998 c 0,26.457752 -21.44825,47.906002 -47.906,47.906002 -26.45775,0 -47.906,-21.44825 -47.906,-47.906002 0,-26.457752 21.44825,-47.905998 47.906,-47.905998 26.45775,0 47.906,21.448246 47.906,47.905998 z" cy="70.031" cx="358.03" r="47.906" fill="#d2d5dd"/><polygon points="496.26,267.08,497.46,267.11,497.14,279.11,495.9,279.08" fill="#d2d5dd"/><polygon points="494.84,290.96,496.16,291.15,494.54,303.04,493.04,302.83" fill="#d2d5dd"/><polygon points="490.52,314.46,492.27,314.92,489.37,326.57,487.28,326.02" fill="#d2d5dd"/><polygon points="483.38,337.22,485.8,338.18,481.68,349.45,478.72,348.29" fill="#d2d5dd"/><polygon points="473.51,358.88,476.82,360.65,471.45,371.38,467.57,369.31" fill="#d2d5dd"/><polygon points="461.16,379.14,465.35,382.04,458.81,392.1,454.04,388.8" fill="#d2d5dd"/><polygon points="446.6,397.76,451.49,402.05,443.84,411.3,438.41,406.54" fill="#d2d5dd"/><polygon points="430.06,414.55,435.34,420.39,426.65,428.67,420.96,422.38" fill="#d2d5dd"/><polygon points="411.82,429.36,417.11,436.75,407.49,443.93,401.92,436.15" fill="#d2d5dd"/><polygon points="392.15,442.09,396.98,450.81,386.56,456.77,381.57,447.76" fill="#d2d5dd"/><polygon points="371.24,452.58,375.26,462.34,364.19,466.98,360.12,457.08" fill="#d2d5dd"/><rect transform="matrix(0.9627,-0.2707,0.2707,0.9627,-113.6821,110.8522)" height="10.799" width="11.996" y="462.16" x="339.04" fill="#d2d5dd"/><polygon points="326.7,466.46,328.39,477.06,316.53,478.89,314.86,468.41" fill="#d2d5dd"/><polygon points="303.53,469.67,303.98,480.04,291.99,480.42,291.55,470.34" fill="#d2d5dd"/><polygon points="280.11,470.36,279.43,480.08,267.47,479.02,268.12,469.75" fill="#d2d5dd"/><polygon points="256.71,468.51,255.08,477.2,243.33,474.74,244.86,466.56" fill="#d2d5dd"/><polygon points="233.6,464.05,231.3,471.47,219.92,467.65,222.06,460.75" fill="#d2d5dd"/><polygon points="211.1,456.93,208.4,463.03,197.54,457.91,200.02,452.32" fill="#d2d5dd"/><polygon points="189.54,447.21,186.68,452.05,176.47,445.76,179.09,441.32" fill="#d2d5dd"/><polygon points="169.24,434.98,166.39,438.74,156.92,431.38,159.58,427.86" fill="#d2d5dd"/><path fill="#d2d5dd" d="m147.7,423.33s-2.143-2.101-4.285-4.2c-2.155-2.088-4.309-4.176-4.309-4.176l2.663-2.788s2.185,2.057,4.37,4.112c2.196,2.044,4.393,4.088,4.393,4.088l-2.832,2.964z"/><polygon points="133.66,403.61,130.82,405.97,123.17,396.72,125.96,394.4" fill="#d2d5dd"/><polygon points="118.95,384.92,115.92,386.9,109.32,376.88,112.42,374.85" fill="#d2d5dd"/><path fill="#d2d5dd" d="m103.2,366.31s-1.35-2.68-2.701-5.358c-1.36-2.674-2.721-5.348-2.721-5.348l3.495-1.747s1.323,2.692,2.646,5.385c1.333,2.688,2.666,5.375,2.666,5.375l-3.385,1.693z"/><polygon points="96.734,343,92.842,344.41,88.643,333.17,92.754,331.68" fill="#d2d5dd"/><polygon points="89.546,320.39,84.995,321.46,82.062,309.83,86.97,308.67" fill="#d2d5dd"/><polygon points="85.129,297.12,79.754,297.74,78.14,285.85,83.964,285.17" fill="#d2d5dd"/><path fill="#d2d5dd" d="m77.185,273.58s-0.103-2.999-0.206-5.998l-0.01-0.281-0.006-0.374-0.003-0.558c-0.003-0.369-0.005-0.732-0.007-1.084-0.005-0.703-0.009-1.36-0.013-1.922-0.007-1.125-0.012-1.875-0.012-1.875l6.79,0.089s-0.025,0.75-0.062,1.875c-0.018,0.563-0.04,1.218-0.063,1.921-0.012,0.352-0.023,0.715-0.036,1.084l-0.018,0.557-0.165,0.07-0.164,0.035v0.018-0.088,0.153l0.161,0.281c-0.012,3.001,0.058,6.001,0.058,6.001l-6.244,0.096z"/><polygon points="84.587,249.96,77.368,249.14,78.472,237.19,86.164,238.06" fill="#d2d5dd"/><polygon points="88.345,226.72,80.342,224.87,82.817,213.12,91.283,215.08" fill="#d2d5dd"/><polygon points="94.726,204.12,86.135,201.05,90.001,189.69,98.945,192.89" fill="#d2d5dd"/><polygon points="103.59,182.43,94.739,178.05,99.927,167.23,109.04,171.74" fill="#d2d5dd"/><polygon points="114.8,161.9,106.04,156.22,112.46,146.09,121.43,151.9" fill="#d2d5dd"/><polygon points="128.24,142.79,119.82,135.84,127.38,126.53,135.95,133.6" fill="#d2d5dd"/><polygon points="143.74,125.33,135.9,117.18,144.47,108.79,152.46,117.08" fill="#d2d5dd"/><polygon points="161.12,109.77,154.02,100.46,163.5,93.105,170.72,102.57" fill="#d2d5dd"/><polygon points="180.14,96.304,173.96,85.929,184.23,79.725,190.49,90.233" fill="#d2d5dd"/><polygon points="200.54,85.097,195.48,73.795,206.4,68.817,211.52,80.26" fill="#d2d5dd"/><polygon points="222.08,76.328,218.27,64.22,229.7,60.567,233.54,72.767" fill="#d2d5dd"/><polygon points="244.46,70.044,242.04,57.418,253.82,55.137,256.25,67.811" fill="#d2d5dd"/><polygon points="267.41,66.325,266.45,53.475,278.42,52.596,279.37,65.426" fill="#d2d5dd"/><polygon points="290.64,65.197,291.15,52.411,303.14,52.936,302.64,65.617" fill="#d2d5dd"/><polygon points="313.87,66.652,315.8,54.214,327.65,56.14,325.74,68.409" fill="#d2d5dd"/><polygon points="336.8,70.694,340.06,58.905,351.6,62.194,348.39,73.805" fill="#d2d5dd"/><polygon points="359.13,77.33,363.57,66.401,374.64,71.055,370.3,81.714" fill="#d2d5dd"/><polygon points="380.63,86.416,385.98,76.662,396.39,82.642,391.26,91.979" fill="#d2d5dd"/><polygon points="401.06,97.807,406.92,89.548,416.56,96.704,411,104.53" fill="#d2d5dd"/><polygon points="420.16,111.44,426.14,104.78,434.84,113.05,429.32,119.2" fill="#d2d5dd"/><polygon points="437.7,127.15,443.37,122.13,451.05,131.36,445.93,135.89" fill="#d2d5dd"/><polyline points="458.41,141.31,464.99,151.35,460.58,154.43,453.42,144.8,458.41,141.31" fill="#d2d5dd"/><polygon points="467.03,164.21,471.14,161.99,476.54,172.71,473.02,174.61" fill="#d2d5dd"/><polygon points="478.27,185.17,481.45,183.9,485.62,195.16,482.98,196.21" fill="#d2d5dd"/><polygon points="486.94,207.38,489.23,206.76,492.15,218.4,490.24,218.91" fill="#d2d5dd"/><polygon points="492.82,230.52,494.46,230.28,496.11,242.17,494.68,242.38" fill="#d2d5dd"/><polygon points="495.82,254.24,497.12,254.2,497.46,266.2,496.26,266.24" fill="#d2d5dd"/><path fill="#26aae0" d="m287.87,119.39c-81.82,0-148.15,66.328-148.15,148.15,0,11.744,1.373,23.165,3.955,34.121l0.013-3.42c2.62-3.76,5.241-7.521,7.863-11.282,16.525-24.046,42.964-30.542,67.125-16.639,25.755,14.816,35.898,44.789,22.793,70.317-9.326,18.307-19.229,36.359-29.083,54.394,3.033,1.799,6.135,3.493,9.303,5.078,7.502-13.874,14.994-27.755,23.083-41.236,11.739-19.375,19.945-38.978,9.459-62.796,6.953,2.507,12.081,5.014,17.551,6.153,15.499,3.306,27.921-5.128,29.631-19.374,1.822-15.385-7.75-26.325-24.275-26.668-19.26-0.342-38.42-0.113-57.681-0.113-19.943,0-27.251-7.407-27.251-27.466v-25.187c-7,6.383-11.725,11.283-17.764,17.095,6.837-30.885,40.806-53.792,69.296-47.751,49.347,10.371,98.811,20.741,148.16,31.226,2.735,0.57,5.243,1.652,7.523,4.729-3.419,0.114-6.95,0.284-10.369,0.284h-152.6c-16.296,0-16.752,0-15.157,19h32.708c10.143,0,20.172,0.244,30.314,0.13,19.716-0.114,34.304,9.067,43.535,26.049,9.003,16.41,10.713,32.968-0.684,49.492-6.839,9.916-12.879,20.531-18.918,31.016-5.813,10.143-11.739,19.84-23.934,23.259-1.709,0.455-3.305,2.509-4.216,4.104-9.333,16.361-18.561,32.828-27.887,49.299,11.42,2.82,23.359,4.329,35.652,4.329,81.818,0,148.15-66.326,148.15-148.15,0.004-81.817-66.324-148.14-148.14-148.14z"/><path fill="#FFF" d="m284.32,357.95c12.194-3.419,18.121-13.106,23.934-23.249,6.039-10.484,12.079-21.084,18.918-30.999,11.396-16.525,9.687-33.05,0.684-49.46-9.231-16.981-23.819-26.229-43.535-26.115-10.142,0.114-20.171-0.13-30.314-0.13h-32.708c-1.596-19-1.139-19,15.157-19h152.6c3.419,0,6.952-0.17,10.371-0.284-2.279-3.077-4.787-4.245-7.521-4.815-49.348-10.484-98.809-20.812-148.16-31.184-28.491-6.039-62.467,16.888-69.304,47.772,6.039-5.812,10.764-10.69,17.764-17.073v25.187c0,20.059,7.308,27.466,27.251,27.466,19.261,0,38.414-0.229,57.674,0.113,16.525,0.343,26.101,11.283,24.277,26.668-1.71,14.246-14.13,22.68-29.629,19.374-5.47-1.14-10.597-3.646-17.549-6.153,10.485,23.818,2.281,43.421-9.458,62.796-8.09,13.481-15.581,27.362-23.084,41.236,9.626,4.813,19.847,8.609,30.526,11.249,9.326-16.471,18.554-32.936,27.888-49.295,0.91-1.597,2.505-3.648,4.214-4.104z"/><path fill="#FFF" d="m212.39,395.02c9.854-18.034,19.757-36.087,29.083-54.394,13.105-25.528,2.962-55.501-22.793-70.317-24.161-13.903-50.601-7.407-67.125,16.639-2.622,3.761-5.243,7.522-7.863,11.282l-0.013,3.42c9.347,39.652,34.627,73.146,68.711,93.37z"/><polygon points="489.08,300.84,470.55,332.99,457.57,310.52,481.71,268.7" fill="#0ba25e"/><polygon points="489.08,300.84,494.68,291.15,481.71,268.7" fill="#089156"/><polygon points="494.7,310.54,531.81,310.52,518.83,332.99,470.55,332.99" fill="#2a71e9"/><polygon points="494.7,310.54,483.51,310.54,470.55,332.99" fill="#296ad9"/><polygon points="500.29,300.82,481.71,268.7,507.67,268.7,531.81,310.52" fill="#fccd48"/><polygon points="500.29,300.82,505.88,310.52,531.81,310.52" fill="#e3b73a"/><polygon points="215.1,50.432,200.21,38.1,178.92,51.886,193.64,63.578" fill="#007ee5"/><polygon points="193.64,63.577,178.92,75.269,200.21,89.055,215.1,76.722" fill="#007ee5"/><polygon points="236.56,63.577,215.1,76.722,229.99,89.055,251.28,75.269" fill="#007ee5"/><polygon points="236.56,63.577,251.28,51.886,229.99,38.1,215.1,50.432" fill="#007ee5"/><polygon points="193.82,92.172,215.14,104.86,236.47,92.172,236.47,87.531,230.08,91.671,215.14,79.375,200.21,91.671,193.82,87.531" fill="#007ee5"/><circle d="m 102.619,153.991 c 0,8.85975 -7.182245,16.042 -16.041997,16.042 -8.859751,0 -16.041999,-7.18225 -16.041999,-16.042 0,-8.85975 7.182248,-16.042 16.041999,-16.042 8.859752,0 16.041997,7.18225 16.041997,16.042 z" cy="153.99" cx="86.577" r="16.042" fill="#02a0df"/><circle d="m 147.457,163.539 c 0,9.89197 -8.01902,17.911 -17.91099,17.911 -9.89198,0 -17.911,-8.01903 -17.911,-17.911 0,-9.89197 8.01902,-17.911 17.911,-17.911 9.89197,0 17.91099,8.01903 17.91099,17.911 z" cy="163.54" cx="129.55" r="17.911" fill="#02a0df"/><circle d="m 109.95,180.95799 c 0,8.07164 -6.54336,14.615 -14.615001,14.615 -8.071641,0 -14.615,-6.54336 -14.615,-14.615 0,-8.07164 6.543359,-14.615 14.615,-14.615 8.071641,0 14.615001,6.54336 14.615001,14.615 z" cy="180.96" cx="95.335" r="14.615" fill="#02a0df"/><circle d="m 127.467,175.25 c 0,6.93007 -5.61793,12.548 -12.548,12.548 -6.93007,0 -12.548,-5.61793 -12.548,-12.548 0,-6.93007 5.61793,-12.548 12.548,-12.548 6.93007,0 12.548,5.61793 12.548,12.548 z" cy="175.25" cx="114.92" r="12.548" fill="#02a0df"/><circle d="m 92.673001,172.118 c 0,7.69885 -6.24115,13.94 -13.939999,13.94 -7.698849,0 -13.94,-6.24115 -13.94,-13.94 0,-7.69885 6.241151,-13.94 13.94,-13.94 7.698849,0 13.939999,6.24115 13.939999,13.94 z" cy="172.12" cx="78.733" r="13.94" fill="#02a0df"/><circle d="m 124.057,154.233 c 0,8.00592 -6.49008,14.496 -14.496,14.496 -8.00592,0 -14.496003,-6.49008 -14.496003,-14.496 0,-8.00592 6.490083,-14.496 14.496003,-14.496 8.00592,0 14.496,6.49008 14.496,14.496 z" cy="154.23" cx="109.56" r="14.496" fill="#02a0df"/><rect height="24.635" width="44.677" y="153" x="78.006" fill="#02a0df"/><path fill="#FFF" d="m79.623,161.06c-0.925-0.018-2.011,0.256-2.356,1.091-0.746,1.811,0.563,3.06,2.137,3.353,1.573,0.294,1.589,1.2,1.31,1.63-0.289,0.444-1.706,0.894-3.467-0.168l-0.548,0.96c1.764,1.037,4.226,1.35,5.216-0.249,0.948-1.53-0.454-3.06-2.016-3.353s-1.584-1.167-1.393-1.639c0.205-0.507,1.636-0.732,3.175,0.144l0.559-0.955c-0.725-0.462-1.692-0.796-2.617-0.814z"/><path fill="#FFF" d="m86.656,161.18c-1.003-0.013-2.14,0.219-2.892,0.683l0.485,0.938c1.046-0.354,3.802-1.273,3.763,1.187-2.295-0.11-4.578-0.018-4.626,2.378-0.049,2.397,2.164,2.82,5.983,1.938,0,0,0.004-4.138,0-4.615-0.008-0.83-0.118-1.717-1.164-2.215-0.393-0.187-0.946-0.286-1.549-0.294zm-0.095,3.939c0.417-0.014,0.883,0.018,1.356,0.101v2.141c-1.03,0.25-1.936,0.281-2.616-0.034-0.613-0.284-0.639-1.281-0.198-1.797,0.21-0.244,0.763-0.39,1.458-0.411z"/><rect height="10.482" width="1.55" y="158.16" x="91.063" fill="#FFF"/><path fill="#FFF" d="m97.272,161.07c-1.626-0.007-3.254,1.195-3.254,3.599,0,4.288,3.072,4.717,6.355,3.633l-0.554-1.135c-3.049,1.016-4.231-0.016-4.231-1.792h4.932v-0.638c0.001-2.44-1.622-3.66-3.248-3.667zm0.079,1.232c0.891,0.012,1.78,0.624,1.78,1.809h-3.56c0-1.231,0.889-1.821,1.78-1.809z"/><polygon points="108.39,162.56,108.55,161.33,112.94,161.33,112.78,162.56" fill="#FFF"/><path fill="#FFF" d="m111.21,160.59c0.431-1.298,1.081-1.563,2.249-1.276l0.458-1.057c-1.938-0.53-3.478,0.073-3.989,2.119l-0.764,4.543-0.757,4.504c-0.431,1.298-1.08,1.563-2.249,1.278l-0.457,1.056c1.937,0.53,3.478-0.072,3.988-2.118l0.764-4.543,0.757-4.506z"/><path fill="#FFF" d="m116.52,161.05c-1.685,0-3.338,1.254-3.338,3.853s1.697,3.933,3.497,3.933c1.799,0,3.305-1.229,3.305-3.933,0-2.703-1.778-3.853-3.464-3.853zm0.029,1.373c0.929,0,1.91,0.742,1.91,2.492,0,1.749-0.834,2.542-1.825,2.542s-1.926-0.861-1.926-2.542c-0.001-1.682,0.912-2.492,1.841-2.492z"/><path fill="#FFF" d="m125.29,162.54,0.416-1.247c-1.537-0.346-2.71-0.125-3.483,1.438l-0.016,4.011c0.304-2.179,0.103-4.844,3.083-4.202z"/><rect height="7.415" width="1.486" y="161.25" x="121.36" fill="#FFF"/><path fill="#FFF" d="m131.75,168.48-0.526-1.166c-2.343,0.531-3.74-0.128-3.74-2.376,0-2.247,1.397-2.907,3.74-2.375l0.526-1.166c-3.526-0.938-5.688,0.428-5.688,3.542,0,3.112,2.161,4.478,5.688,3.541z"/><path fill="#FFF" d="m135.6,161.07c-1.626-0.007-3.254,1.195-3.254,3.599,0,4.288,3.073,4.717,6.356,3.633l-0.553-1.135c-3.049,1.016-4.232-0.016-4.232-1.792h4.933v-0.638c-0.002-2.44-1.624-3.66-3.25-3.667zm0.079,1.232c0.891,0.012,1.78,0.624,1.78,1.809h-3.56c-0.001-1.231,0.889-1.821,1.78-1.809z"/><path fill="#FFF" d="m104.66,161.06c-0.925-0.018-2.012,0.256-2.356,1.091-0.747,1.811,0.563,3.06,2.136,3.353,1.574,0.294,1.589,1.2,1.311,1.63-0.289,0.444-1.707,0.894-3.467-0.168l-0.548,0.96c1.764,1.037,4.226,1.35,5.215-0.249,0.947-1.53-0.454-3.06-2.016-3.353-1.563-0.293-1.585-1.167-1.394-1.639,0.206-0.507,1.637-0.732,3.175,0.144l0.559-0.955c-0.723-0.462-1.69-0.796-2.615-0.814z"/><path fill="#7ac143" d="m128.66,408.57c2.183,0.008,4.373,0,6.558,0,0.376,0,0.681-0.306,0.679-0.678-0.014-2.401-0.055-4.801-0.08-7.202-0.015-1.439,0.382-2.745,0.962-3.759l-12.857,12.745c1.851-0.975,3.39-1.109,4.738-1.106zm51-1.373c-1.006-5.336-5.216-5.392-12.687-6.376-3.308-0.437-7.207-0.359-9.559-0.287-0.282-1.934-1.638-3.699-3.156-4.312-4.043-1.627-10.307-1.292-11.894-0.785-2.919,0.935-4.377,2.445-4.34,5.271,0.032,2.532,0.059,4.631,0.081,7.184,0.012,1.423-1.154,2.579-2.583,2.582-1.217,0.001-4.37,0-6.555,0-6.856,0-6.527,5.465-5.838,9.726,0.291,1.804,2.208,14.465,4.073,18.314,0.725,1.496,1.191,2.15,2.626,2.781,3.154,1.385,10.4,2.863,13.79,3.295,3.384,0.433,5.543,1.359,6.773-1.312,1.361-2.95,1.899-6.718,1.848-10.04,0-0.219,0.319-0.229,0.319,0,0,1.51-0.288,6.852,3.747,8.284,1.592,0.564,4.896,1.071,8.255,1.461,3.036,0.353,5.239,1.543,5.239,9.334,0,4.738-0.995,5.389-6.199,5.389-4.218,0-5.826,0.107-5.826-3.242,0-2.709,2.679-2.424,4.664-2.424,0.887,0,0.243-0.661,0.243-2.331,0-1.664,1.04-2.621,0.057-2.647-6.865-0.186-10.904-0.008-10.904,8.577,0,7.794,2.983,9.24,12.726,9.24,7.639,0,10.33-0.249,13.486-10.036,0.623-1.933,2.134-7.828,3.047-17.728,0.579-6.259-0.535-25.152-1.433-29.918zm-16.015,21.043c0.331-5.853,7.762-5.847,7.407,0.858-2.545-0.953-4.902-1.25-7.407-0.858z"/><path fill="#e75a4d" d="m386.9,42.745c3.122,0,5.677,2.555,5.677,5.678v1.646l-7.888,5.635-26.856,18.5-26.857-18.688v37.375h-2.022c-3.122,0-5.678-2.555-5.678-5.678v-38.789c0-3.123,2.556-5.678,5.678-5.678l28.88,21.412,29.065-21.412,0.001-0.001z"/><polygon points="330.97,55.516,330.97,92.892,384.69,92.892,384.69,55.704,357.83,74.205" fill="#e7e4d7"/><polygon points="357.71,74.118,330.97,92.48,330.97,92.892,357.83,74.205" fill="#b8b7ae"/><polygon points="384.69,55.704,384.7,92.892,357.83,74.205" fill="#b7b6ad"/><path fill="#b2392f" d="m392.57,50.069,0.011,37.149c-0.135,4.129-1.926,5.603-7.882,5.672l-0.016-37.188,7.89-5.635-0.003,0.002z"/><polygon points="328.95,42.745,357.83,64.156,386.9,42.745" fill="#f7f5ed"/><path fill="#c0cad4" d="m468.37,150.38c-1.271,0.001-2.479,0.225-3.598,0.635l0.221,0.336-0.031,0.021c1.151-0.252,2.347-0.386,3.573-0.386,1.753,0,3.442,0.272,5.028,0.776-1.526-0.88-3.291-1.381-5.193-1.382"/><path fill="#c0cad4" d="m464.77,151.01c-0.717,0.264-1.396,0.604-2.03,1.012,0.718-0.268,1.459-0.487,2.22-0.654l0.031-0.021-0.221-0.337"/><radialGradient id="SVGID_1_" gradientUnits="userSpaceOnUse" cy="0" cx="-197.79" gradientTransform="matrix(32.8322,0,0,32.8322,6962.2861,144.3906)" r="1"><stop stop-color="#7FB3DF" offset="0"/><stop stop-color="#7FB3DF" offset="0.1"/><stop stop-color="#0F5B94" offset="0.9"/><stop stop-color="#0F5B94" offset="1"/></radialGradient><circle d="m 483.29101,160.798 c 0,8.24175 -6.68125,14.923 -14.923,14.923 -8.24174,0 -14.923,-6.68125 -14.923,-14.923 0,-8.24174 6.68126,-14.923 14.923,-14.923 8.24175,0 14.923,6.68126 14.923,14.923 z" cy="160.8" cx="468.37" r="14.923" fill="url(#SVGID_1_)"/><radialGradient id="SVGID_2_" gradientUnits="userSpaceOnUse" cy="0" cx="-197.79" gradientTransform="matrix(48.5987,0,0,48.5987,10080.758,136.5)" r="1"><stop stop-color="#F6F0EE" offset="0"/><stop stop-color="#DDD" offset="1"/></radialGradient><path fill="url(#SVGID_2_)" d="m464.77,151.01c1.118-0.411,2.327-0.634,3.598-0.635,1.901,0.001,3.667,0.502,5.193,1.384,0.795,0.458,1.525,1.021,2.176,1.669,1.894,1.9,3.052,4.478,3.054,7.371-0.002,2.893-1.16,5.47-3.054,7.371-1.9,1.894-4.478,3.05-7.369,3.053-2.894-0.002-5.472-1.16-7.372-3.053-1.893-1.9-3.051-4.478-3.053-7.371,0.002-2.553,0.903-4.859,2.416-6.672,0.201-0.242,0.414-0.475,0.637-0.699,0.531-0.529,1.115-1,1.744-1.405,0.633-0.409,1.313-0.749,2.03-1.013m3.431-6.66c-1.611,0.021-3.209,0.279-4.747,0.762-4.834,1.521-8.479,5.052-10.306,9.382l0.13,0.136c-1.535,3.565-1.769,7.555-0.665,11.275,0.983,2.951,2.778,5.566,5.177,7.545,3.091,2.549,6.828,3.792,10.544,3.792,1.058,0,2.114-0.101,3.153-0.301l0.029-0.091c3.761-0.713,7.159-2.704,9.617-5.638,2.298-2.907,3.556-6.499,3.572-10.205,0.019-3.911-1.318-7.511-3.57-10.357h-0.002c-3.075-3.894-7.731-6.201-12.685-6.297h-0.021-0.018-0.044-0.008-0.048-0.005-0.051-0.001c-0.016-0.003-0.033-0.003-0.051-0.003"/><radialGradient id="SVGID_3_" gradientUnits="userSpaceOnUse" cy="0" cx="-197.79" gradientTransform="matrix(32.0039,0,0,21.0847,6799.7695,123.7344)" r="1"><stop stop-color="#F06B59" offset="0"/><stop stop-color="#DF2227" offset="1"/></radialGradient><path fill="url(#SVGID_3_)" d="m468.41,123.73c-5.555,0-11.192,1.25-16.504,3.89-5.372,2.67-10.012,6.6-13.529,11.444l14.776,15.431c1.826-4.331,5.472-7.862,10.306-9.382,1.538-0.483,3.136-0.741,4.747-0.762h33.495c-6.491-13.059-19.634-20.621-33.291-20.621"/><radialGradient id="SVGID_4_" gradientUnits="userSpaceOnUse" cy="0" cx="-197.79" gradientTransform="matrix(37.7987,0,0,43.8554,7939.9897,157.3438)" r="1"><stop stop-color="#4CB749" offset="0"/><stop stop-color="#4CB749" offset="0.65"/><stop stop-color="#388B41" offset="1"/></radialGradient><path fill="url(#SVGID_4_)" d="m437.69,140.04c-11.421,17.04-6.869,40.113,10.172,51.536,5.092,3.414,10.948,5.512,17.043,6.112l6.584-20.745c-1.039,0.2-2.096,0.301-3.153,0.301-3.716,0-7.453-1.242-10.544-3.792-2.398-1.979-4.193-4.594-5.177-7.545l-14.925-25.867"/><radialGradient id="SVGID_5_" gradientUnits="userSpaceOnUse" cy="0" cx="-197.79" gradientTransform="matrix(31.956,0,0,42.8011,6800.5415,157.7188)" r="1"><stop stop-color="#FCD209" offset="0"/><stop stop-color="#FCD209" offset="0.6"/><stop stop-color="#F7C616" offset="0.7"/><stop stop-color="#BC821E" offset="1"/></radialGradient><path fill="url(#SVGID_5_)" d="m502.19,145.39-21.05,5.262c2.252,2.846,3.589,6.446,3.57,10.357-0.017,3.706-1.274,7.298-3.572,10.205l-15.587,26.532c0.952,0.072,1.899,0.107,2.84,0.107,19.242,0,35.524-14.842,36.999-34.346,0.47-6.216-0.633-12.448-3.2-18.117m-33.758-1.035h0.021c-0.007,0.001-0.014,0-0.021,0m-0.062-0.001h0.044c-0.015,0.001-0.029,0.001-0.044,0m-0.055,0h0.048-0.048m-0.056-0.001h0.051-0.051m-0.054,0h0.053-0.053"/><path fill="#c5cdd6" d="m438.35,139.04-0.665,0.995c0.223-0.329,0.451-0.654,0.684-0.975l-0.019-0.02"/><radialGradient id="SVGID_6_" gradientUnits="userSpaceOnUse" cy="0" cx="-197.79" gradientTransform="matrix(48.5987,0,0,48.5987,10080.758,136.5)" r="1"><stop stop-color="#E6E6E6" offset="0"/><stop stop-color="#CFD4D6" offset="1"/></radialGradient><path fill="url(#SVGID_6_)" d="m453.15,154.49c-1.474,3.495-1.763,7.51-0.535,11.411-1.104-3.72-0.87-7.71,0.665-11.275l-0.13-0.136"/><radialGradient id="SVGID_7_" gradientUnits="userSpaceOnUse" cy="0" cx="-197.79" gradientTransform="matrix(32.0039,0,0,21.0847,6799.7695,123.7344)" r="1"><stop stop-color="#E16B5C" offset="0"/><stop stop-color="#D1272E" offset="1"/></radialGradient><path fill="url(#SVGID_7_)" d="m438.37,139.06c-0.232,0.321-0.461,0.646-0.684,0.975l14.925,25.868c-1.228-3.901-0.938-7.917,0.535-11.411l-14.776-15.432"/><radialGradient id="SVGID_8_" gradientUnits="userSpaceOnUse" cy="0" cx="-197.79" gradientTransform="matrix(48.5987,0,0,48.5987,10080.758,136.5)" r="1"><stop stop-color="#EBE9E9" offset="0"/><stop stop-color="#D3D7D8" offset="1"/></radialGradient><path fill="url(#SVGID_8_)" d="m481.14,171.21c-2.458,2.934-5.856,4.925-9.617,5.638l-0.029,0.091c3.653-0.703,7.093-2.634,9.646-5.729"/><path fill="#c9cfd8" d="m464.9,197.69-0.019,0.058h0.662c-0.214-0.018-0.429-0.037-0.643-0.058"/><radialGradient id="SVGID_9_" gradientUnits="userSpaceOnUse" cy="0" cx="-197.79" gradientTransform="matrix(37.7987,0,0,43.8554,7939.9897,157.3438)" r="1"><stop stop-color="#4AB34C" offset="0"/><stop stop-color="#4AB34C" offset="0.65"/><stop stop-color="#378944" offset="1"/></radialGradient><path fill="url(#SVGID_9_)" d="m481.14,171.21c-2.553,3.094-5.993,5.025-9.646,5.729l-6.584,20.745c0.214,0.021,0.429,0.04,0.644,0.058l15.586-26.532"/><path fill="#c9cfd8" d="m501.7,144.35,0,0,0,0c0.169,0.344,0.332,0.689,0.489,1.038l0.175-0.043-0.664-0.995"/><path fill="url(#SVGID_8_)" d="m468.45,144.35c4.953,0.096,9.609,2.404,12.685,6.297h0.002c-2.974-3.758-7.541-6.199-12.687-6.297m-0.039-0.001h0.018-0.018m-0.052-0.001h0.008-0.008m-0.052,0h0.005-0.005m-0.052-0.001"/><radialGradient id="SVGID_11_" gradientUnits="userSpaceOnUse" cy="0" cx="-197.79" gradientTransform="matrix(31.956,0,0,42.8011,6800.5415,157.7188)" r="1"><stop stop-color="#F1CD0F" offset="0"/><stop stop-color="#F1CD0F" offset="0.6"/><stop stop-color="#ECC11C" offset="0.7"/><stop stop-color="#B48123" offset="1"/></radialGradient><path fill="url(#SVGID_11_)" d="m501.7,144.35,0,0h-33.495,0.053,0.001,0.051,0.005,0.048,0.008,0.044,0.018,0.021c5.146,0.099,9.713,2.54,12.687,6.297l21.05-5.262c-0.159-0.346-0.322-0.692-0.491-1.035"/><path d="m106.66,290.16c0.091-1.039,0.509-1.926,1.24-2.669,0.878-0.891,1.963-1.283,3.192-1.253,2.512,0.062,4.334,2.021,4.245,4.533-0.084,2.346-2.142,4.195-4.567,4.098-1.321-0.053-2.364-0.636-3.189-1.658-0.456-0.563-0.718-1.209-0.901-1.893-0.034-0.127-0.014-0.268-0.018-0.402-0.03-0.251-0.031-0.504-0.002-0.756z" fill-rule="evenodd" clip-rule="evenodd" fill="#34ab01"/><path d="m106.66,324.73c0.032-0.757,0.305-1.438,0.723-2.049,1.035-1.518,2.811-2.17,4.617-1.765,1.784,0.4,3.063,1.815,3.293,3.587,0.359,2.748-1.773,5.061-4.55,4.934-1.409-0.064-2.489-0.724-3.309-1.85-0.379-0.522-0.603-1.11-0.759-1.727-0.029-0.119-0.012-0.25-0.016-0.375-0.024-0.251-0.031-0.503,0.001-0.755z" fill-rule="evenodd" clip-rule="evenodd" fill="#34ab01"/><path d="m106.66,307.44c0.087-1.029,0.5-1.911,1.221-2.647,0.902-0.92,2.016-1.319,3.287-1.271,2.25,0.085,3.989,1.752,4.162,3.962,0.174,2.206-1.339,4.186-3.539,4.598-1.981,0.374-3.88-0.604-4.741-2.44-0.217-0.462-0.371-0.932-0.39-1.442-0.028-0.255-0.029-0.507,0-0.76z" fill-rule="evenodd" clip-rule="evenodd" fill="#34ab01"/><path fill="#1f8bd4" d="m97.864,329.89c0.002-12.079,0.002-24.157,0.001-36.234,0-0.099,0.016-0.198-0.016-0.297-0.005-0.138-0.01-0.276-0.016-0.414-0.045-0.093,0.002-0.197-0.04-0.29-0.08-0.448-0.137-0.903-0.244-1.345-0.659-2.736-2.177-4.923-4.331-6.688-1.218-0.998-2.569-1.784-4.005-2.432-1.98-0.893-4.05-1.483-6.177-1.889-0.77-0.147-1.548-0.261-2.322-0.39l-0.279-0.043c-0.237,0.019-0.466-0.029-0.696-0.068-0.09-0.039-0.193,0.012-0.282-0.039l-0.26-0.015c-0.093-0.038-0.196,0.007-0.288-0.038-0.103-0.005-0.205-0.01-0.308-0.015-0.127-0.048-0.267,0.015-0.394-0.04l-0.866-0.054c-0.176-0.006-0.353-0.282-0.528-0.288-0.238-0.046-0.483-0.31-0.721-0.31h-3.595c-0.273,0-0.553,0.26-0.827,0.313-0.175,0.004-0.351,0.145-0.526,0.15-0.164,0.057-0.339,0.058-0.503,0.107-0.123,0.005-0.244,0.043-0.366,0.048-0.126,0.056-0.265,0.011-0.393,0.056-0.104,0.006-0.208,0.02-0.312,0.023-0.126,0.058-0.267-0.005-0.394,0.047l-0.205,0.014c-0.089,0.051-0.192,0.001-0.283,0.04l-0.256,0.017c-0.09,0.047-0.195-0.002-0.286,0.041-0.782,0.115-1.566,0.209-2.342,0.349-2.165,0.389-4.282,0.945-6.303,1.839-1.663,0.735-3.202,1.658-4.554,2.877-0.546,0.49-1.046,1.03-1.513,1.603-1.051,1.288-1.833,2.722-2.404,4.275-0.471,1.285-0.798,2.605-0.94,3.97-0.039,0.092,0.007,0.195-0.039,0.287-0.004,0.121-0.01,0.242-0.016,0.362-0.046,0.147,0.016,0.304-0.039,0.451l0.004,0.19c-0.034,0.196,0.031,0.288,0.239,0.254l0.132,0.008c0.099-0.003,0.198-0.01,0.297-0.01,1.771,0,3.541-0.002,5.31,0.003,0.187,0.001,0.281-0.026,0.322-0.246,0.096-0.521,0.233-1.036,0.362-1.553,0.446-1.791,1.31-3.332,2.732-4.536,1.051-0.893,2.25-1.528,3.534-2.01,2.578-0.968,5.272-1.335,7.999-1.507,2.001-0.127,4.005-0.134,6.01-0.021,1.957,0.111,3.899,0.337,5.813,0.774,1.881,0.431,3.702,1.029,5.339,2.085,1.064,0.686,1.968,1.527,2.502,2.705,0.753,1.659,0.464,3.259-0.813,4.551-0.447,0.453-0.956,0.827-1.498,1.153-1.159,0.699-2.409,1.187-3.697,1.582-3.128,0.96-6.347,1.426-9.593,1.73-2.344,0.221-4.688,0.438-7.014,0.813-2.523,0.404-5.015,0.938-7.443,1.742-2.358,0.782-4.605,1.788-6.596,3.307-2.411,1.842-4.458,4.207-5.036,7.212-0.111,0.576-0.692,1.16-0.692,1.74v1.864c0,0.128,0.456,0.267,0.5,0.395l0.245,0.262,0.156,0.281c0.05,0.188,0.095,0.382,0.126,0.573,0.091,0.571,0.252,1.133,0.408,1.689,0.03,0.096,0.044,0.202,0.11,0.285,0.259,0.876,0.658,1.692,1.128,2.472,0.884,1.464,2.067,2.651,3.463,3.623,1.314,0.919,2.754,1.604,4.263,2.141,0.71,0.254,1.429,0.483,2.16,0.671,0.898,0.23,1.802,0.437,2.719,0.583l0.224,0.045c0.518,0.109,1.04,0.173,1.565,0.229l0.281,0.042,0.021-0.007,0.021,0.011c0.125,0.065,0.269-0.012,0.395,0.05l0.203,0.013c0.092,0.042,0.196-0.008,0.287,0.04l0.256,0.016c0.092,0.039,0.197-0.007,0.288,0.039,0.102,0.005,0.206,0.009,0.308,0.016,0.109,0.043,0.229-0.014,0.338,0.039,0.104,0.004,0.207,0.009,0.312,0.013,0.144,0.05,0.3-0.018,0.443,0.042,0.141,0.006,0.282,0.01,0.424,0.015,0.148,0.043,0.304-0.016,0.451,0.038,0.193,0.005,0.385-0.185,0.578-0.18,0.256,0.051,0.519-0.155,0.775-0.155h3.158c0.147,0,0.304,0.201,0.451,0.155,0.122-0.005,0.242,0.087,0.363,0.081,0.128-0.053,0.267,0.059,0.396,0.009l0.204,0.013c0.089-0.05,0.193,0.012,0.284-0.027,0.844-0.114,1.692-0.198,2.531-0.341,0.766-0.131,1.523-0.306,2.281-0.479,2.526-0.573,4.998-1.321,7.389-2.326,1.225-0.515,2.422-1.085,3.553-1.786,0.11-0.069,0.179-0.078,0.239,0.076,0.464,1.19,0.939,2.377,1.412,3.564,0.069,0.172,0.163,0.266,0.39,0.263,1.506-0.013,3.013-0.004,4.52-0.001,0.077-0.097,0.036-0.21,0.036-0.313zm-7.125-11.791c-0.712,0.783-1.551,1.405-2.439,1.967-3.149,1.99-6.581,3.25-10.227,3.967-3.001,0.589-6.025,0.604-9.06,0.389-2.193-0.155-4.36-0.453-6.466-1.102-1.528-0.471-2.964-1.12-4.207-2.158-2.554-2.137-2.52-5.603-1.134-7.551,0.686-0.964,1.604-1.653,2.624-2.221,1.588-0.885,3.303-1.435,5.056-1.874,2.296-0.577,4.627-0.953,6.979-1.205,2.134-0.229,4.274-0.417,6.408-0.651,3.229-0.356,6.44-0.82,9.544-1.835,1.09-0.357,2.125-0.784,3.151-1.294l0.243-0.119v0.458c0,3.954,0.017,7.91,0.037,11.865,0,0.549-0.156,0.975-0.509,1.364z"/><ellipse d="m 320.771,456.354 c 0,4.07531 -13.56219,7.379 -30.292,7.379 -16.72981,0 -30.292,-3.30369 -30.292,-7.379 0,-4.07531 13.56219,-7.379 30.292,-7.379 16.72981,0 30.292,3.30369 30.292,7.379 z" fill-rule="evenodd" rx="30.292" ry="7.379" cy="456.35" cx="290.48" clip-rule="evenodd" fill="#fefefe"/><ellipse d="m 320.771,454.54199 c 0,4.07421 -13.56219,7.377 -30.292,7.377 -16.72981,0 -30.292,-3.30279 -30.292,-7.377 0,-4.0742 13.56219,-7.377 30.292,-7.377 16.72981,0 30.292,3.3028 30.292,7.377 z" fill-rule="evenodd" rx="30.292" ry="7.377" cy="454.54" cx="290.48" clip-rule="evenodd" fill="#fefefe"/><ellipse d="m 320.771,455.31699 c 0,4.07531 -13.56219,7.379 -30.292,7.379 -16.72981,0 -30.292,-3.30369 -30.292,-7.379 0,-4.07531 13.56219,-7.379 30.292,-7.379 16.72981,0 30.292,3.30369 30.292,7.379 z" fill-rule="evenodd" rx="30.292" ry="7.379" cy="455.32" cx="290.48" clip-rule="evenodd" fill="#fefefe"/><path d="m259.99,461.92s8.394,6.475,30.855,6.475c23.457,0,30.188-6.475,30.188-6.475s0.354,7.726-0.259,8.805c-0.973,1.709-11.306,6.645-29.93,6.645-20.902,0-29.36-4.66-30.395-6.387-1.035-1.726-0.459-9.063-0.459-9.063z" fill-rule="evenodd" clip-rule="evenodd" fill="#fefefe"/><path d="m259.99,474.87s8.394,6.472,30.855,6.472c23.457,0,30.188-6.472,30.188-6.472s0.354,7.724-0.259,8.803c-0.973,1.711-11.306,6.645-29.93,6.645-20.902,0-29.36-4.66-30.395-6.386-1.035-1.727-0.459-9.062-0.459-9.062z" fill-rule="evenodd" clip-rule="evenodd" fill="#fefefe"/><path d="m260.24,488.07s8.394,6.474,30.857,6.474c23.456,0,30.188-6.474,30.188-6.474s0.354,7.725-0.26,8.803c-0.973,1.711-11.305,6.646-29.929,6.646-20.903,0-29.361-4.661-30.396-6.388-1.036-1.724-0.46-9.061-0.46-9.061z" fill-rule="evenodd" clip-rule="evenodd" fill="#fefefe"/><path d="m457.21,447.04c0,5.5-4.459,9.959-9.959,9.959h-43.082c-5.5,0-9.959-4.459-9.959-9.959v-39.082c0-5.5,4.459-9.959,9.959-9.959h43.082c5.5,0,9.959,4.459,9.959,9.959v39.082z" fill-rule="evenodd" clip-rule="evenodd" fill="#8ea0ae"/><path d="m457.21,445.04c0,5.501-4.46,9.961-9.961,9.961h-43.08c-5.501,0-9.961-4.46-9.961-9.961v-39.078c0-5.501,4.46-9.961,9.961-9.961h43.078c5.501,0,9.961,4.46,9.961,9.961v39.078z" fill-rule="evenodd" clip-rule="evenodd" fill="#fefefe"/><path d="m446.81,396h-42.688c-5.5,0-9.912,4.187-9.912,9.688v3.92l0.117-0.078c12.807-7.541,22.217-0.807,22.217-0.807s9.148-9.013,21.953-8.016c11.596,0.902,17.713,8.549,18.713,10.032v-5.052c-0.001-5.5-4.899-9.687-10.4-9.687z" fill-rule="evenodd" clip-rule="evenodd" fill="#117dbe"/><ellipse d="m 419.20499,432.55701 c 0,5.19976 -4.18345,9.415 -9.344,9.415 -5.16055,0 -9.344,-4.21524 -9.344,-9.415 0,-5.19976 4.18345,-9.415 9.344,-9.415 5.16055,0 9.344,4.21524 9.344,9.415 z" fill-rule="evenodd" rx="9.344" ry="9.415" cy="432.56" cx="409.86" clip-rule="evenodd" fill="#117dbe"/><ellipse d="m 435.995,432.55701 c 0,5.19976 -4.18345,9.415 -9.344,9.415 -5.16055,0 -9.344,-4.21524 -9.344,-9.415 0,-5.19976 4.18345,-9.415 9.344,-9.415 5.16055,0 9.344,4.21524 9.344,9.415 z" fill-rule="evenodd" rx="9.344" ry="9.415" cy="432.56" cx="426.65" clip-rule="evenodd" fill="#117dbe"/><circle d="m 415.88399,432.39099 c 0,3.16956 -2.56944,5.739 -5.739,5.739 -3.16956,0 -5.739,-2.56944 -5.739,-5.739 0,-3.16956 2.56944,-5.739 5.739,-5.739 3.16956,0 5.739,2.56944 5.739,5.739 z" fill-rule="evenodd" cx="410.14" cy="432.39" r="5.739" clip-rule="evenodd" fill="#fefefe"/><circle d="m 432.39,432.39099 c 0,3.16956 -2.56944,5.739 -5.739,5.739 -3.16956,0 -5.739,-2.56944 -5.739,-5.739 0,-3.16956 2.56944,-5.739 5.739,-5.739 3.16956,0 5.739,2.56944 5.739,5.739 z" fill-rule="evenodd" cx="426.65" cy="432.39" r="5.739" clip-rule="evenodd" fill="#fefefe"/><path fill="#117dbe" d="m404.21,433.72c0,1.021-0.772,1.85-1.847,1.85-1.073,0-1.817-0.778-1.817-1.8l-0.052-16.556c0-1.021,0.783-1.85,1.856-1.85,1.074,0,1.859,0.828,1.859,1.85v16.506z"/><path fill="#117dbe" d="m448.47,438.85c0.683,0.927,0.57,2.168-0.254,2.775-0.821,0.606-2.043,0.345-2.725-0.581l-11.04-14.97c-0.681-0.927-0.567-2.17,0.254-2.775,0.823-0.605,2.043-0.347,2.726,0.581l11.026,14.976z"/><path fill="#117dbe" d="m434.34,438.85c-0.683,0.927-0.568,2.168,0.254,2.775,0.823,0.606,2.043,0.345,2.726-0.581l11.027-14.976c0.683-0.927,0.567-2.17-0.254-2.775-0.823-0.605-2.043-0.347-2.727,0.581l-11.026,14.976z"/></g></svg>
