<?xml version="1.0" encoding="UTF-8" standalone="no"?>
<!-- Created with Inkscape (http://www.inkscape.org/) -->

<svg
   xmlns:dc="http://purl.org/dc/elements/1.1/"
   xmlns:cc="http://creativecommons.org/ns#"
   xmlns:rdf="http://www.w3.org/1999/02/22-rdf-syntax-ns#"
   xmlns:svg="http://www.w3.org/2000/svg"
   xmlns="http://www.w3.org/2000/svg"
   version="1.1"
   width="512"
   height="512"
   id="svg3039">
  <metadata
     id="metadata3045">
    <rdf:RDF>
      <cc:Work
         rdf:about="">
        <dc:format>image/svg+xml</dc:format>
        <dc:type
           rdf:resource="http://purl.org/dc/dcmitype/StillImage" />
        <dc:title></dc:title>
      </cc:Work>
    </rdf:RDF>
  </metadata>
  <defs
     id="defs3043" />
  <g
     id="layer3"
     style="display:inline">
    <g
       id="g3839">
      <path
         d="m 221.01775,176.66272 a 77.846153,77.846153 0 1 1 -155.692303,0 77.846153,77.846153 0 1 1 155.692303,0 z"
         transform="matrix(1.1398601,0,0,1.1398601,-11.85832,-14.909256)"
         id="path3057"
         style="fill:#02a0df;fill-opacity:1;fill-rule:evenodd;stroke:none" />
      <path
         d="m 221.01775,176.66272 a 77.846153,77.846153 0 1 1 -155.692303,0 77.846153,77.846153 0 1 1 155.692303,0 z"
         transform="matrix(1.2727272,0,0,1.2727272,206.80622,14.422808)"
         id="path3827"
         style="fill:#02a0df;fill-opacity:1;fill-rule:evenodd;stroke:none" />
      <path
         d="m 221.01775,176.66272 a 77.846153,77.846153 0 1 1 -155.692303,0 77.846153,77.846153 0 1 1 155.692303,0 z"
         transform="matrix(1.0384615,0,0,1.0384615,51.108785,152.16385)"
         id="path3829"
         style="fill:#02a0df;fill-opacity:1;fill-rule:evenodd;stroke:none" />
      <path
         d="m 221.01775,176.66272 a 77.846153,77.846153 0 1 1 -155.692303,0 77.846153,77.846153 0 1 1 155.692303,0 z"
         transform="matrix(0.89160835,0,0,0.89160835,180.46535,146.53337)"
         id="path3831"
         style="fill:#02a0df;fill-opacity:1;fill-rule:evenodd;stroke:none" />
      <path
         d="m 221.01775,176.66272 a 77.846153,77.846153 0 1 1 -155.692303,0 77.846153,77.846153 0 1 1 155.692303,0 z"
         transform="matrix(0.9905044,0,0,0.9905044,-33.859368,111.74009)"
         id="path3833"
         style="fill:#02a0df;fill-opacity:1;fill-rule:evenodd;stroke:none" />
      <path
         d="m 221.01775,176.66272 a 77.846153,77.846153 0 1 1 -155.692303,0 77.846153,77.846153 0 1 1 155.692303,0 z"
         transform="matrix(1.0300628,0,0,1.0300628,131.0027,5.8235876)"
         id="path3835"
         style="fill:#02a0df;fill-opacity:1;fill-rule:evenodd;stroke:none" />
      <rect
         width="247.12755"
         height="136.26659"
         x="103.93214"
         y="180.95688"
         id="rect3837"
         style="fill:#02a0df;fill-opacity:1;stroke:none" />
    </g>
  </g>
  <g
     id="layer5">
    <g
       id="g4900">
      <path
         d="m 112.875,225.5625 c -5.11646,-0.1007 -11.12649,1.41335 -13.03125,6.03125 -4.132639,10.01917 3.11069,16.92538 11.81448,18.55041 8.70379,1.62503 8.79026,6.63854 7.24802,9.01209 -1.59697,2.45779 -9.43877,4.94255 -19.177515,-0.93047 l -3.03125,5.3125 c 9.755115,5.73138 23.374595,7.46703 28.850765,-1.37667 5.24004,-8.46235 -2.50978,-16.92932 -11.15126,-18.55007 -8.64147,-1.62075 -8.7647,-6.45212 -7.70857,-9.06421 1.13516,-2.80755 9.05434,-4.05325 17.56158,0.79642 l 3.09375,-5.28125 c -4.0016,-2.54972 -9.35229,-4.3993 -14.46875,-4.5 z"
         id="path3850"
         style="fill:#ffffff;fill-opacity:1;stroke:none" />
      <path
         d="m 151.78125,226.25 c -5.55064,-0.073 -11.8385,1.20976 -16,3.78125 l 2.6875,5.1875 c 5.78679,-1.95854 21.02978,-7.04188 20.8125,6.5625 -12.6957,-0.60391 -25.3258,-0.10202 -25.59375,13.15625 -0.26796,13.25827 11.96565,15.59952 33.09375,10.71875 0,0 0.0233,-22.88813 0,-25.53125 -0.0406,-4.59074 -0.64974,-9.49426 -6.4375,-12.25 -2.17041,-1.0334 -5.23212,-1.58117 -8.5625,-1.625 z M 151.25,248.03125 c 2.30456,-0.0716 4.88841,0.10568 7.5,0.5625 l 0,11.84375 c -5.69874,1.38577 -10.70805,1.55391 -14.46875,-0.1875 -3.38958,-1.56957 -3.53421,-7.08488 -1.09375,-9.9375 1.15802,-1.35359 4.22157,-2.16186 8.0625,-2.28125 z"
         id="path3852"
         style="fill:#ffffff;fill-opacity:1;stroke:none" />
      <rect
         width="8.5736694"
         height="57.982758"
         x="176.15797"
         y="209.53508"
         id="rect3863"
         style="fill:#ffffff;fill-opacity:1;stroke:none" />
      <path
         d="m 210.5,225.59375 c -8.99352,-0.0374 -18,6.61016 -18,19.90625 0,23.71368 16.99771,26.09258 35.15625,20.09375 l -3.0625,-6.28125 c -16.86573,5.6231 -23.40625,-0.086 -23.40625,-9.90625 l 27.28125,0 0,-3.53125 c 0,-13.49614 -8.97523,-20.2439 -17.96875,-20.28125 z m 0.4375,6.8125 c 4.92765,0.0636 9.84375,3.45025 9.84375,10 l -19.6875,0 c 0,-6.80399 4.9161,-10.06356 9.84375,-10 z"
         id="rect3865"
         style="fill:#ffffff;fill-opacity:1;stroke:none" />
      <g
         id="g3915">
        <rect
           width="24.3125"
           height="6.8680816"
           ry="0"
           x="301.9375"
           y="228.91504"
           transform="matrix(1,0,-0.12696414,0.99190731,0,0)"
           id="rect3878"
           style="fill:#ffffff;fill-opacity:1;stroke:none" />
        <path
           d="m 287.60179,222.95194 c 2.38481,-7.17917 5.97617,-8.64438 12.4375,-7.0625 l 2.53125,-5.84375 c -10.71433,-2.93204 -19.23705,0.40212 -22.0625,11.71875 l -4.22799,25.12744 -4.1863,24.92067 c -2.38481,7.17917 -5.97617,8.64438 -12.4375,7.0625 l -2.53125,5.84375 c 10.71433,2.93204 19.23705,-0.40212 22.0625,-11.71875 l 4.22798,-25.12744 z"
           id="path3887"
           style="fill:#ffffff;fill-opacity:1;stroke:none" />
      </g>
      <path
         d="m 316.96875,225.5 c -9.32281,0 -18.46875,6.93842 -18.46875,21.3125 0,14.37408 9.38982,21.75 19.34375,21.75 9.95393,0 18.28125,-6.79308 18.28125,-21.75 0,-14.95692 -9.83344,-21.3125 -19.15625,-21.3125 z m 0.15625,7.59375 c 5.13566,0 10.5625,4.1043 10.5625,13.78125 0,9.67696 -4.61043,14.0625 -10.09375,14.0625 -5.48333,0 -10.65625,-4.76263 -10.65625,-14.0625 0,-9.29986 5.05183,-13.78125 10.1875,-13.78125 z"
         id="path3893"
         style="fill:#ffffff;fill-opacity:1;stroke:none" />
      <g
         id="g3920">
        <path
           d="m 365.48581,233.75348 2.2981,-6.89429 c -8.50287,-1.91485 -14.99059,-0.69219 -19.26866,7.95495 l -0.0884,22.18548 c 1.68975,-12.05186 0.57229,-26.79823 17.05896,-23.24614 z"
           id="path3906"
           style="fill:#ffffff;fill-opacity:1;stroke:none" />
        <rect
           width="8.2201166"
           height="41.012192"
           rx="0"
           ry="0"
           x="343.74228"
           y="226.59402"
           id="rect3904"
           style="fill:#ffffff;fill-opacity:1;stroke:none" />
      </g>
      <path
         d="m 401.19471,266.57528 -2.91682,-6.45235 c -12.95514,2.93867 -20.68287,-0.71078 -20.68287,-13.14053 0,-12.42975 7.72773,-16.0792 20.68287,-13.14053 l 2.91682,-6.45235 c -19.50888,-5.18167 -31.46625,2.37368 -31.46625,19.59288 0,17.2192 11.95737,24.77455 31.46625,19.59288 z"
         id="path3910"
         style="fill:#ffffff;fill-opacity:1;stroke:none" />
      <path
         d="m 422.5,225.59375 c -8.99352,-0.0374 -18,6.61016 -18,19.90625 0,23.71368 16.99771,26.09258 35.15625,20.09375 l -3.0625,-6.28125 c -16.86573,5.6231 -23.40625,-0.086 -23.40625,-9.90625 l 27.28125,0 0,-3.53125 c 0,-13.49614 -8.97523,-20.2439 -17.96875,-20.28125 z m 0.4375,6.8125 c 4.92765,0.0636 9.84375,3.45025 9.84375,10 l -19.6875,0 c 0,-6.80399 4.9161,-10.06356 9.84375,-10 z"
         id="path3924"
         style="fill:#ffffff;fill-opacity:1;stroke:none" />
      <path
         d="m 251.34987,225.5625 c -5.11646,-0.1007 -11.12649,1.41335 -13.03125,6.03125 -4.13264,10.01917 3.11069,16.92538 11.81448,18.55041 8.70379,1.62503 8.79026,6.63854 7.24802,9.01209 -1.59697,2.45779 -9.43877,4.94255 -19.17751,-0.93047 l -3.03125,5.3125 c 9.75511,5.73138 23.37459,7.46703 28.85076,-1.37667 5.24004,-8.46235 -2.50978,-16.92932 -11.15126,-18.55007 -8.64147,-1.62075 -8.7647,-6.45212 -7.70857,-9.06421 1.13516,-2.80755 9.05434,-4.05325 17.56158,0.79642 l 3.09375,-5.28125 c -4.0016,-2.54972 -9.35229,-4.3993 -14.46875,-4.5 z"
         id="path3926"
         style="fill:#ffffff;fill-opacity:1;stroke:none" />
    </g>
  </g>
</svg>
