<?xml version="1.0" encoding="UTF-8" standalone="no"?>
<svg
   xmlns:dc="http://purl.org/dc/elements/1.1/"
   xmlns:cc="http://creativecommons.org/ns#"
   xmlns:rdf="http://www.w3.org/1999/02/22-rdf-syntax-ns#"
   xmlns:svg="http://www.w3.org/2000/svg"
   xmlns="http://www.w3.org/2000/svg"
   xmlns:sodipodi="http://sodipodi.sourceforge.net/DTD/sodipodi-0.dtd"
   xmlns:inkscape="http://www.inkscape.org/namespaces/inkscape"
   height="857.08801"
   width="857.08801"
   id="svg2995"
   version="1.1"
   inkscape:version="0.48.5 r10040"
   sodipodi:docname="trello.svg">
  <metadata
     id="metadata3003">
    <rdf:RDF>
      <cc:Work
         rdf:about="">
        <dc:format>image/svg+xml</dc:format>
        <dc:type
           rdf:resource="http://purl.org/dc/dcmitype/StillImage" />
        <dc:title></dc:title>
      </cc:Work>
    </rdf:RDF>
  </metadata>
  <defs
     id="defs3001" />
  <sodipodi:namedview
     pagecolor="#ffffff"
     bordercolor="#666666"
     borderopacity="1"
     objecttolerance="10"
     gridtolerance="10"
     guidetolerance="10"
     inkscape:pageopacity="0"
     inkscape:pageshadow="2"
     inkscape:window-width="1920"
     inkscape:window-height="1123"
     id="namedview2999"
     showgrid="false"
     inkscape:zoom="0.887"
     inkscape:cx="201.96496"
     inkscape:cy="428.57599"
     inkscape:window-x="-9"
     inkscape:window-y="-9"
     inkscape:window-maximized="1"
     inkscape:current-layer="g3016"
     fit-margin-top="0"
     fit-margin-left="0"
     fit-margin-right="0"
     fit-margin-bottom="0" />
  <g
     id="g3016"
     transform="translate(0,-71.488)"
     style="fill:#216884;fill-opacity:1">
    <path
       id="path2997"
       d="M 392.832,750.016 V 178.624 q 0,-7.812 -5.022,-12.834 -5.022,-5.022 -12.834,-5.022 h -267.84 q -7.812,0 -12.834,5.022 -5.022,5.022 -5.022,12.834 v 571.392 q 0,7.812 5.022,12.834 5.022,5.022 12.834,5.022 h 267.84 q 7.812,0 12.834,-5.022 5.022,-5.022 5.022,-12.834 z M 767.808,535.744 v -357.12 q 0,-7.812 -5.022,-12.834 -5.022,-5.022 -12.834,-5.022 h -267.84 q -7.812,0 -12.834,5.022 -5.022,5.022 -5.022,12.834 v 357.12 q 0,7.812 5.022,12.834 5.022,5.022 12.834,5.022 h 267.84 q 7.812,0 12.834,-5.022 5.022,-5.022 5.022,-12.834 z M 857.088,107.2 v 785.664 q 0,14.508 -10.602,25.11 -10.602,10.602 -25.11,10.602 H 35.712 q -14.508,0 -25.11,-10.602 Q 0,907.372 0,892.864 V 107.2 Q 0,92.692 10.602,82.09 21.204,71.488 35.712,71.488 h 785.664 q 14.508,0 25.11,10.602 10.602,10.602 10.602,25.11 z"
       inkscape:connector-curvature="0"
       style="fill:#216884;fill-opacity:1" />
    <path
       inkscape:connector-curvature="0"
       id="path3005"
       d="m 99.677095,765.4392 c -2.744328,-1.25123 -5.733273,-3.75695 -7.04201,-5.90353 -2.264745,-3.71462 -2.273869,-4.89893 -2.273869,-295.16137 0,-290.54876 0.0069,-291.44313 2.280648,-295.17253 1.3732,-2.25233 4.251741,-4.61264 7.234511,-5.93206 4.830345,-2.13669 8.397635,-2.18397 143.066715,-1.89625 137.50544,0.29379 138.12655,0.30531 141.226,2.61954 1.71223,1.27845 4.15915,3.72546 5.4376,5.4378 l 2.32445,3.11335 0,291.83015 0,291.83014 -2.32445,3.11335 c -1.27845,1.71235 -3.72535,4.15936 -5.43754,5.4378 -3.09996,2.31465 -3.69636,2.32558 -141.4185,2.59099 -134.49382,0.2592 -138.43682,0.20664 -143.073555,-1.90738 l 0,0 z"
       style="fill:#ffffff;fill-opacity:1" />
    <path
       inkscape:connector-curvature="0"
       id="path3007"
       d="m 478.17691,552.62816 c -4.23796,-0.7833 -10.18509,-5.77084 -11.96734,-10.03636 -1.33923,-3.20522 -1.53681,-31.84302 -1.28962,-186.91652 0.29167,-182.97748 0.29387,-183.13399 2.61637,-186.2446 1.27844,-1.71228 3.72536,-4.15923 5.43759,-5.43768 3.09945,-2.31423 3.72057,-2.32575 141.226,-2.61954 134.66909,-0.28772 138.23637,-0.24044 143.06672,1.89625 2.98276,1.31942 5.86131,3.67973 7.23451,5.93206 2.26465,3.71448 2.28068,5.03291 2.28486,187.89599 0.005,173.36176 -0.11139,184.35172 -1.96873,187.5074 -1.08511,1.84369 -3.74859,4.45861 -5.91882,5.81093 l -3.94589,2.45877 -136.97858,0.13712 c -75.33822,0.0754 -138.2469,-0.0973 -139.79707,-0.38382 z"
       style="fill:#ffffff;fill-opacity:1" />
  </g>
</svg>
