<svg xmlns="http://www.w3.org/2000/svg" width="225.274" height="212.224" viewBox="0 0 225.27432 212.22351" enable-background="new 0 0 262.619 263.444"><g><path d="m 116.64076,246.59884 c 8.456,-14.99 16.881,-29.997 25.42299,-44.937 0.826,-1.445 2.206,-3.154 3.66,-3.565 10.737,-3.032 15.925,-11.528 21.018,-20.35699 5.313,-9.209 10.556,-18.507 16.589,-27.243 10.028,-14.522 8.499,-29.029 0.64,-43.431 -8.15,-14.934013 -20.887,-22.879013 -38.236,-22.761013 -8.86899,0.06 -17.73799,0.01 -26.60699,0.01 -9.633,0 -19.266001,0 -28.723001,0 -1.425,-16.18699 -1.027,-16.64599 13.342001,-16.64699 44.64099,-0.004 89.28199,0.007 133.92299,-0.021 3.047,-0.002 6.093,-0.281 9.14,-0.431 -2.014,-2.72 -4.241,-3.77 -6.584,-4.266 -43.322,-9.171 -86.661,-18.26701 -129.99099,-27.40001 -24.964001,-5.261 -54.844991,14.76701 -60.778991,41.937 5.3,-5.067 9.795,-9.36399 15.64,-14.95199 0,8.69199 -0.005,15.40799 10e-4,22.12299 0.014,17.636013 6.416,24.121013 23.87499,24.142013 16.851001,0.021 33.708001,-0.247 50.552001,0.095 14.46699,0.294 22.90899,9.914 21.31799,23.435 -1.477,12.548 -12.426,19.918 -26.02599,17.044 -4.752,-1.004 -9.256,-3.186 -15.424,-5.381 9.174,20.937 1.953,38.09899 -8.283,55.11399 -9.333,15.514 -17.661001,31.632 -26.417001,47.493 l -10.65,0 c 11.421,-21.14 23.19,-42.101 34.146001,-63.479 11.462,-22.36499 2.594,-48.67199 -20.040001,-61.72599 -21.20799,-12.231 -44.42999,-6.472 -58.885,14.59 -2.287,3.332 -4.624,6.629 -6.938,9.942 l -0.78933,-0.31205 c 0.47434,44.00458 0.45833,-19.56695 0.45833,88.62004 0,7.011 5.685,12.696 12.696,12.696 50.15205,-3.79444 -62.06303,1.25874 81.951001,-0.332 z" fill="#fff" transform="translate(-21.535 -34.707)"/></g></svg>